<?xml version="1.0" encoding="UTF-8"?>
<svg version="1.1" viewBox="-10 0 550 120"  xmlns="http://www.w3.org/2000/svg">
<path d="M0 0 C1.051875 0.4125 2.10375 0.825 3.1875 1.25 C4.5239486 7.68925234 4.5239486 7.68925234 3.0625 10.125 C0.614777 11.5936338 -0.93493866 12.18148663 -3.8125 12.25 C-6.625 10.625 -6.625 10.625 -8.8125 8.25 C-9.4375 5.75 -9.4375 5.75 -8.8125 3.25 C-5.75891771 -0.35877907 -4.71495223 -0.92753159 0 0 Z " fill="#1D1D1D" transform="translate(492.8125,76.75)"/>
<path d="M0 0 C0.66 0.66 1.32 1.32 2 2 C1.875 5.5 1.875 5.5 1 9 C-1.32735236 10.99487345 -2.52524123 11.03473845 -5.5625 10.8125 C-8.31191087 9.89602971 -9.50101314 9.49831143 -11 7 C-10.9375 3.4375 -10.9375 3.4375 -10 0 C-6.66845292 -3.08476581 -3.84496762 -1.67172505 0 0 Z " fill="#1E1E1E" transform="translate(195,63)"/>
<path d="M0 0 C1.051875 0.4125 2.10375 0.825 3.1875 1.25 C4.5239486 7.68925234 4.5239486 7.68925234 3.0625 10.125 C0.614777 11.5936338 -0.93493866 12.18148663 -3.8125 12.25 C-6.625 10.625 -6.625 10.625 -8.8125 8.25 C-9.4375 5.75 -9.4375 5.75 -8.8125 3.25 C-5.75891771 -0.35877907 -4.71495223 -0.92753159 0 0 Z " fill="#0A0A0A" transform="translate(207.8125,61.75)"/>
<path d="M0 0 C0.8125 3.25 0.8125 3.25 1 7 C-1.125 9.5 -1.125 9.5 -4 11 C-6.87756134 10.93148663 -8.427277 10.3436338 -10.875 8.875 C-12 7 -12 7 -11.9375 3.4375 C-11 0 -11 0 -9.375 -1.5625 C-5.90246994 -2.20217659 -3.2850863 -1.13714526 0 0 Z " fill="#161616" transform="translate(31,18)"/>
<path d="M0 0 C2.8125 1.375 2.8125 1.375 4.8125 3.375 C4.6875 6.875 4.6875 6.875 3.8125 10.375 C1.48514764 12.36987345 0.28725877 12.40973845 -2.75 12.1875 C-5.43688496 11.29187168 -6.59914878 10.71572811 -8.1875 8.375 C-8.6875 5.9375 -8.6875 5.9375 -8.1875 3.375 C-5.37153936 0.14492751 -4.29424586 -0.84200899 0 0 Z " fill="#1B1B1B" transform="translate(477.1875,76.625)"/>
<path d="M0 0 C2.8125 1.375 2.8125 1.375 4.8125 3.375 C4.6875 6.875 4.6875 6.875 3.8125 10.375 C1.48514764 12.36987345 0.28725877 12.40973845 -2.75 12.1875 C-5.43688496 11.29187168 -6.59914878 10.71572811 -8.1875 8.375 C-8.6875 5.9375 -8.6875 5.9375 -8.1875 3.375 C-5.37153936 0.14492751 -4.29424586 -0.84200899 0 0 Z " fill="#161616" transform="translate(147.1875,76.625)"/>
<path d="M0 0 C2.8125 1.375 2.8125 1.375 4.8125 3.375 C4.6875 6.875 4.6875 6.875 3.8125 10.375 C1.48514764 12.36987345 0.28725877 12.40973845 -2.75 12.1875 C-5.43688496 11.29187168 -6.59914878 10.71572811 -8.1875 8.375 C-8.6875 5.9375 -8.6875 5.9375 -8.1875 3.375 C-5.37153936 0.14492751 -4.29424586 -0.84200899 0 0 Z " fill="#1E1E1E" transform="translate(522.1875,76.625)"/>
<path d="M0 0 C2.8125 1.375 2.8125 1.375 4.8125 3.375 C4.6875 6.875 4.6875 6.875 3.8125 10.375 C1.48514764 12.36987345 0.28725877 12.40973845 -2.75 12.1875 C-5.43688496 11.29187168 -6.59914878 10.71572811 -8.1875 8.375 C-8.6875 5.9375 -8.6875 5.9375 -8.1875 3.375 C-5.37153936 0.14492751 -4.29424586 -0.84200899 0 0 Z " fill="#1E1E1E" transform="translate(327.1875,76.625)"/>
<path d="M0 0 C2 2 2 2 2.4375 4.375 C2 7 2 7 -0.1875 9.375 C-3 11 -3 11 -5.625 10.9375 C-9.57241379 9.37931034 -9.57241379 9.37931034 -11 7 C-10.9375 3.4375 -10.9375 3.4375 -10 0 C-6.66845292 -3.08476581 -3.84496762 -1.67172505 0 0 Z " fill="#1D1D1D" transform="translate(30,78)"/>
<path d="M0 0 C1.051875 0.4125 2.10375 0.825 3.1875 1.25 C4 4.5 4 4.5 4.1875 8.25 C2.0625 10.75 2.0625 10.75 -0.8125 12.25 C-3.73988742 12.1803003 -5.22845862 11.65278716 -7.625 10 C-8.8125 8.25 -8.8125 8.25 -9.3125 5.8125 C-8.8125 3.25 -8.8125 3.25 -6.75 0.8125 C-3.8125 -0.75 -3.8125 -0.75 0 0 Z " fill="#1E1E1E" transform="translate(327.8125,61.75)"/>
<path d="M0 0 C2.8125 1.375 2.8125 1.375 4.8125 3.375 C4.6875 6.875 4.6875 6.875 3.8125 10.375 C1.48514764 12.36987345 0.28725877 12.40973845 -2.75 12.1875 C-5.43688496 11.29187168 -6.59914878 10.71572811 -8.1875 8.375 C-8.6875 5.9375 -8.6875 5.9375 -8.1875 3.375 C-5.37153936 0.14492751 -4.29424586 -0.84200899 0 0 Z " fill="#1D1C1C" transform="translate(492.1875,61.625)"/>
<path d="M0 0 C2.8125 1.375 2.8125 1.375 4.8125 3.375 C4.6875 6.875 4.6875 6.875 3.8125 10.375 C1.48514764 12.36987345 0.28725877 12.40973845 -2.75 12.1875 C-5.43688496 11.29187168 -6.59914878 10.71572811 -8.1875 8.375 C-8.6875 5.9375 -8.6875 5.9375 -8.1875 3.375 C-5.37153936 0.14492751 -4.29424586 -0.84200899 0 0 Z " fill="#141414" transform="translate(327.1875,46.625)"/>
<path d="M0 0 C2.8125 1.375 2.8125 1.375 4.8125 3.375 C4.6875 6.875 4.6875 6.875 3.8125 10.375 C1.48514764 12.36987345 0.28725877 12.40973845 -2.75 12.1875 C-5.43688496 11.29187168 -6.59914878 10.71572811 -8.1875 8.375 C-8.6875 5.9375 -8.6875 5.9375 -8.1875 3.375 C-5.37153936 0.14492751 -4.29424586 -0.84200899 0 0 Z " fill="#1E1E1E" transform="translate(207.1875,46.625)"/>
<path d="M0 0 C2 2 2 2 2.4375 4.375 C2 7 2 7 -0.1875 9.375 C-3 11 -3 11 -5.625 10.9375 C-9.57241379 9.37931034 -9.57241379 9.37931034 -11 7 C-10.9375 3.4375 -10.9375 3.4375 -10 0 C-6.66845292 -3.08476581 -3.84496762 -1.67172505 0 0 Z " fill="#1F1F1F" transform="translate(285,18)"/>
<path d="M0 0 C2 2 2 2 2.4375 4.375 C2 7 2 7 -0.1875 9.375 C-3 11 -3 11 -5.625 10.9375 C-9.57241379 9.37931034 -9.57241379 9.37931034 -11 7 C-10.9375 3.4375 -10.9375 3.4375 -10 0 C-6.66845292 -3.08476581 -3.84496762 -1.67172505 0 0 Z " fill="#181818" transform="translate(375,18)"/>
<path d="M0 0 C2.8125 1.375 2.8125 1.375 4.8125 3.375 C4.6875 6.875 4.6875 6.875 3.8125 10.375 C1.48514764 12.36987345 0.28725877 12.40973845 -2.75 12.1875 C-5.43688496 11.29187168 -6.59914878 10.71572811 -8.1875 8.375 C-8.6875 5.9375 -8.6875 5.9375 -8.1875 3.375 C-5.37153936 0.14492751 -4.29424586 -0.84200899 0 0 Z " fill="#161616" transform="translate(387.1875,16.625)"/>
<path d="M0 0 C2.8125 1.375 2.8125 1.375 4.8125 3.375 C5.25 5.75 5.25 5.75 4.8125 8.375 C2.625 10.75 2.625 10.75 -0.1875 12.375 C-3.11488742 12.3053003 -4.60345862 11.77778716 -7 10.125 C-8.1875 8.375 -8.1875 8.375 -8.6875 5.9375 C-8.1875 3.375 -8.1875 3.375 -6.0625 0.9375 C-3.1875 -0.625 -3.1875 -0.625 0 0 Z " fill="#1D1D1D" transform="translate(492.1875,106.625)"/>
<path d="M0 0 C2.8125 1.375 2.8125 1.375 4.8125 3.375 C5.25 5.75 5.25 5.75 4.8125 8.375 C2.625 10.75 2.625 10.75 -0.1875 12.375 C-3.11488742 12.3053003 -4.60345862 11.77778716 -7 10.125 C-8.1875 8.375 -8.1875 8.375 -8.6875 5.9375 C-8.1875 3.375 -8.1875 3.375 -6.0625 0.9375 C-3.1875 -0.625 -3.1875 -0.625 0 0 Z " fill="#0A0A0A" transform="translate(492.1875,91.625)"/>
<path d="M0 0 C2.8125 1.375 2.8125 1.375 4.8125 3.375 C5.25 5.75 5.25 5.75 4.8125 8.375 C2.625 10.75 2.625 10.75 -0.1875 12.375 C-3.11488742 12.3053003 -4.60345862 11.77778716 -7 10.125 C-8.1875 8.375 -8.1875 8.375 -8.6875 5.9375 C-8.1875 3.375 -8.1875 3.375 -6.0625 0.9375 C-3.1875 -0.625 -3.1875 -0.625 0 0 Z " fill="#1D1D1D" transform="translate(192.1875,91.625)"/>
<path d="M0 0 C2.8125 1.375 2.8125 1.375 4.8125 3.375 C5.25 5.75 5.25 5.75 4.8125 8.375 C2.625 10.75 2.625 10.75 -0.1875 12.375 C-3.11488742 12.3053003 -4.60345862 11.77778716 -7 10.125 C-8.1875 8.375 -8.1875 8.375 -8.6875 5.9375 C-8.1875 3.375 -8.1875 3.375 -6.0625 0.9375 C-3.1875 -0.625 -3.1875 -0.625 0 0 Z " fill="#121212" transform="translate(372.1875,91.625)"/>
<path d="M0 0 C2.8125 1.375 2.8125 1.375 4.8125 3.375 C5.25 5.75 5.25 5.75 4.8125 8.375 C2.625 10.75 2.625 10.75 -0.1875 12.375 C-3.11488742 12.3053003 -4.60345862 11.77778716 -7 10.125 C-8.1875 8.375 -8.1875 8.375 -8.6875 5.9375 C-8.1875 3.375 -8.1875 3.375 -6.0625 0.9375 C-3.1875 -0.625 -3.1875 -0.625 0 0 Z " fill="#141414" transform="translate(237.1875,91.625)"/>
<path d="M0 0 C2.8125 1.375 2.8125 1.375 4.8125 3.375 C5.25 5.75 5.25 5.75 4.8125 8.375 C2.625 10.75 2.625 10.75 -0.1875 12.375 C-3.11488742 12.3053003 -4.60345862 11.77778716 -7 10.125 C-8.1875 8.375 -8.1875 8.375 -8.6875 5.9375 C-8.1875 3.375 -8.1875 3.375 -6.0625 0.9375 C-3.1875 -0.625 -3.1875 -0.625 0 0 Z " fill="#1C1C1C" transform="translate(162.1875,91.625)"/>
<path d="M0 0 C2.8125 1.375 2.8125 1.375 4.8125 3.375 C5.25 5.75 5.25 5.75 4.8125 8.375 C2.625 10.75 2.625 10.75 -0.1875 12.375 C-3.11488742 12.3053003 -4.60345862 11.77778716 -7 10.125 C-8.1875 8.375 -8.1875 8.375 -8.6875 5.9375 C-8.1875 3.375 -8.1875 3.375 -6.0625 0.9375 C-3.1875 -0.625 -3.1875 -0.625 0 0 Z " fill="#1E1E1E" transform="translate(507.1875,91.625)"/>
<path d="M0 0 C2.8125 1.375 2.8125 1.375 4.8125 3.375 C5.25 5.75 5.25 5.75 4.8125 8.375 C2.625 10.75 2.625 10.75 -0.1875 12.375 C-3.11488742 12.3053003 -4.60345862 11.77778716 -7 10.125 C-8.1875 8.375 -8.1875 8.375 -8.6875 5.9375 C-8.1875 3.375 -8.1875 3.375 -6.0625 0.9375 C-3.1875 -0.625 -3.1875 -0.625 0 0 Z " fill="#151515" transform="translate(432.1875,91.625)"/>
<path d="M0 0 C2.8125 1.375 2.8125 1.375 4.8125 3.375 C5.25 5.75 5.25 5.75 4.8125 8.375 C2.625 10.75 2.625 10.75 -0.1875 12.375 C-3.11488742 12.3053003 -4.60345862 11.77778716 -7 10.125 C-8.1875 8.375 -8.1875 8.375 -8.6875 5.9375 C-8.1875 3.375 -8.1875 3.375 -6.0625 0.9375 C-3.1875 -0.625 -3.1875 -0.625 0 0 Z " fill="#1E1E1E" transform="translate(417.1875,91.625)"/>
<path d="M0 0 C2.8125 1.375 2.8125 1.375 4.8125 3.375 C5.25 5.75 5.25 5.75 4.8125 8.375 C2.625 10.75 2.625 10.75 -0.1875 12.375 C-3.11488742 12.3053003 -4.60345862 11.77778716 -7 10.125 C-8.1875 8.375 -8.1875 8.375 -8.6875 5.9375 C-8.1875 3.375 -8.1875 3.375 -6.0625 0.9375 C-3.1875 -0.625 -3.1875 -0.625 0 0 Z " fill="#1D1D1D" transform="translate(402.1875,91.625)"/>
<path d="M0 0 C2.8125 1.375 2.8125 1.375 4.8125 3.375 C5.25 5.75 5.25 5.75 4.8125 8.375 C2.625 10.75 2.625 10.75 -0.1875 12.375 C-3.11488742 12.3053003 -4.60345862 11.77778716 -7 10.125 C-8.1875 8.375 -8.1875 8.375 -8.6875 5.9375 C-8.1875 3.375 -8.1875 3.375 -6.0625 0.9375 C-3.1875 -0.625 -3.1875 -0.625 0 0 Z " fill="#161616" transform="translate(387.1875,91.625)"/>
<path d="M0 0 C2.8125 1.375 2.8125 1.375 4.8125 3.375 C5.25 5.75 5.25 5.75 4.8125 8.375 C2.625 10.75 2.625 10.75 -0.1875 12.375 C-3.11488742 12.3053003 -4.60345862 11.77778716 -7 10.125 C-8.1875 8.375 -8.1875 8.375 -8.6875 5.9375 C-8.1875 3.375 -8.1875 3.375 -6.0625 0.9375 C-3.1875 -0.625 -3.1875 -0.625 0 0 Z " fill="#1D1D1D" transform="translate(342.1875,91.625)"/>
<path d="M0 0 C2.8125 1.375 2.8125 1.375 4.8125 3.375 C5.25 5.75 5.25 5.75 4.8125 8.375 C2.625 10.75 2.625 10.75 -0.1875 12.375 C-3.11488742 12.3053003 -4.60345862 11.77778716 -7 10.125 C-8.1875 8.375 -8.1875 8.375 -8.6875 5.9375 C-8.1875 3.375 -8.1875 3.375 -6.0625 0.9375 C-3.1875 -0.625 -3.1875 -0.625 0 0 Z " fill="#1E1E1E" transform="translate(297.1875,91.625)"/>
<path d="M0 0 C2.8125 1.375 2.8125 1.375 4.8125 3.375 C5.25 5.75 5.25 5.75 4.8125 8.375 C2.625 10.75 2.625 10.75 -0.1875 12.375 C-3.11488742 12.3053003 -4.60345862 11.77778716 -7 10.125 C-8.1875 8.375 -8.1875 8.375 -8.6875 5.9375 C-8.1875 3.375 -8.1875 3.375 -6.0625 0.9375 C-3.1875 -0.625 -3.1875 -0.625 0 0 Z " fill="#181818" transform="translate(282.1875,91.625)"/>
<path d="M0 0 C2.8125 1.375 2.8125 1.375 4.8125 3.375 C5.25 5.75 5.25 5.75 4.8125 8.375 C2.625 10.75 2.625 10.75 -0.1875 12.375 C-3.11488742 12.3053003 -4.60345862 11.77778716 -7 10.125 C-8.1875 8.375 -8.1875 8.375 -8.6875 5.9375 C-8.1875 3.375 -8.1875 3.375 -6.0625 0.9375 C-3.1875 -0.625 -3.1875 -0.625 0 0 Z " fill="#1E1E1E" transform="translate(222.1875,91.625)"/>
<path d="M0 0 C2.8125 1.375 2.8125 1.375 4.8125 3.375 C5.25 5.75 5.25 5.75 4.8125 8.375 C2.625 10.75 2.625 10.75 -0.1875 12.375 C-3.11488742 12.3053003 -4.60345862 11.77778716 -7 10.125 C-8.1875 8.375 -8.1875 8.375 -8.6875 5.9375 C-8.1875 3.375 -8.1875 3.375 -6.0625 0.9375 C-3.1875 -0.625 -3.1875 -0.625 0 0 Z " fill="#1E1E1E" transform="translate(207.1875,91.625)"/>
<path d="M0 0 C2.8125 1.375 2.8125 1.375 4.8125 3.375 C5.25 5.75 5.25 5.75 4.8125 8.375 C2.625 10.75 2.625 10.75 -0.1875 12.375 C-3.11488742 12.3053003 -4.60345862 11.77778716 -7 10.125 C-8.1875 8.375 -8.1875 8.375 -8.6875 5.9375 C-8.1875 3.375 -8.1875 3.375 -6.0625 0.9375 C-3.1875 -0.625 -3.1875 -0.625 0 0 Z " fill="#1E1E1E" transform="translate(132.1875,91.625)"/>
<path d="M0 0 C2.8125 1.375 2.8125 1.375 4.8125 3.375 C5.25 5.75 5.25 5.75 4.8125 8.375 C2.625 10.75 2.625 10.75 -0.1875 12.375 C-3.11488742 12.3053003 -4.60345862 11.77778716 -7 10.125 C-8.1875 8.375 -8.1875 8.375 -8.6875 5.9375 C-8.1875 3.375 -8.1875 3.375 -6.0625 0.9375 C-3.1875 -0.625 -3.1875 -0.625 0 0 Z " fill="#161616" transform="translate(117.1875,91.625)"/>
<path d="M0 0 C2.8125 1.375 2.8125 1.375 4.8125 3.375 C5.25 5.75 5.25 5.75 4.8125 8.375 C2.625 10.75 2.625 10.75 -0.1875 12.375 C-3.11488742 12.3053003 -4.60345862 11.77778716 -7 10.125 C-8.1875 8.375 -8.1875 8.375 -8.6875 5.9375 C-8.1875 3.375 -8.1875 3.375 -6.0625 0.9375 C-3.1875 -0.625 -3.1875 -0.625 0 0 Z " fill="#181818" transform="translate(42.1875,91.625)"/>
<path d="M0 0 C2.8125 1.375 2.8125 1.375 4.8125 3.375 C5.25 5.75 5.25 5.75 4.8125 8.375 C2.625 10.75 2.625 10.75 -0.1875 12.375 C-3.11488742 12.3053003 -4.60345862 11.77778716 -7 10.125 C-8.1875 8.375 -8.1875 8.375 -8.6875 5.9375 C-8.1875 3.375 -8.1875 3.375 -6.0625 0.9375 C-3.1875 -0.625 -3.1875 -0.625 0 0 Z " fill="#1C1C1C" transform="translate(42.1875,76.625)"/>
<path d="M0 0 C2.8125 1.375 2.8125 1.375 4.8125 3.375 C5.25 5.75 5.25 5.75 4.8125 8.375 C2.625 10.75 2.625 10.75 -0.1875 12.375 C-3.11488742 12.3053003 -4.60345862 11.77778716 -7 10.125 C-8.1875 8.375 -8.1875 8.375 -8.6875 5.9375 C-8.1875 3.375 -8.1875 3.375 -6.0625 0.9375 C-3.1875 -0.625 -3.1875 -0.625 0 0 Z " fill="#1F1F1F" transform="translate(282.1875,76.625)"/>
<path d="M0 0 C2.8125 1.375 2.8125 1.375 4.8125 3.375 C5.25 5.75 5.25 5.75 4.8125 8.375 C2.625 10.75 2.625 10.75 -0.1875 12.375 C-3.11488742 12.3053003 -4.60345862 11.77778716 -7 10.125 C-8.1875 8.375 -8.1875 8.375 -8.6875 5.9375 C-8.1875 3.375 -8.1875 3.375 -6.0625 0.9375 C-3.1875 -0.625 -3.1875 -0.625 0 0 Z " fill="#1C1C1C" transform="translate(402.1875,76.625)"/>
<path d="M0 0 C2.8125 1.375 2.8125 1.375 4.8125 3.375 C5.25 5.75 5.25 5.75 4.8125 8.375 C2.625 10.75 2.625 10.75 -0.1875 12.375 C-3.11488742 12.3053003 -4.60345862 11.77778716 -7 10.125 C-8.1875 8.375 -8.1875 8.375 -8.6875 5.9375 C-8.1875 3.375 -8.1875 3.375 -6.0625 0.9375 C-3.1875 -0.625 -3.1875 -0.625 0 0 Z " fill="#1E1E1E" transform="translate(342.1875,76.625)"/>
<path d="M0 0 C2.8125 1.375 2.8125 1.375 4.8125 3.375 C5.25 5.75 5.25 5.75 4.8125 8.375 C2.625 10.75 2.625 10.75 -0.1875 12.375 C-3.11488742 12.3053003 -4.60345862 11.77778716 -7 10.125 C-8.1875 8.375 -8.1875 8.375 -8.6875 5.9375 C-8.1875 3.375 -8.1875 3.375 -6.0625 0.9375 C-3.1875 -0.625 -3.1875 -0.625 0 0 Z " fill="#1E1E1E" transform="translate(162.1875,76.625)"/>
<path d="M0 0 C2.8125 1.375 2.8125 1.375 4.8125 3.375 C5.25 5.75 5.25 5.75 4.8125 8.375 C2.625 10.75 2.625 10.75 -0.1875 12.375 C-3.11488742 12.3053003 -4.60345862 11.77778716 -7 10.125 C-8.1875 8.375 -8.1875 8.375 -8.6875 5.9375 C-8.1875 3.375 -8.1875 3.375 -6.0625 0.9375 C-3.1875 -0.625 -3.1875 -0.625 0 0 Z " fill="#1E1E1E" transform="translate(102.1875,76.625)"/>
<path d="M0 0 C2.8125 1.375 2.8125 1.375 4.8125 3.375 C5.25 5.75 5.25 5.75 4.8125 8.375 C2.625 10.75 2.625 10.75 -0.1875 12.375 C-3.11488742 12.3053003 -4.60345862 11.77778716 -7 10.125 C-8.1875 8.375 -8.1875 8.375 -8.6875 5.9375 C-8.1875 3.375 -8.1875 3.375 -6.0625 0.9375 C-3.1875 -0.625 -3.1875 -0.625 0 0 Z " fill="#1E1E1E" transform="translate(417.1875,76.625)"/>
<path d="M0 0 C2.8125 1.375 2.8125 1.375 4.8125 3.375 C5.25 5.75 5.25 5.75 4.8125 8.375 C2.625 10.75 2.625 10.75 -0.1875 12.375 C-3.11488742 12.3053003 -4.60345862 11.77778716 -7 10.125 C-8.1875 8.375 -8.1875 8.375 -8.6875 5.9375 C-8.1875 3.375 -8.1875 3.375 -6.0625 0.9375 C-3.1875 -0.625 -3.1875 -0.625 0 0 Z " fill="#1E1E1E" transform="translate(297.1875,76.625)"/>
<path d="M0 0 C2.8125 1.375 2.8125 1.375 4.8125 3.375 C5.25 5.75 5.25 5.75 4.8125 8.375 C2.625 10.75 2.625 10.75 -0.1875 12.375 C-3.11488742 12.3053003 -4.60345862 11.77778716 -7 10.125 C-8.1875 8.375 -8.1875 8.375 -8.6875 5.9375 C-8.1875 3.375 -8.1875 3.375 -6.0625 0.9375 C-3.1875 -0.625 -3.1875 -0.625 0 0 Z " fill="#1E1E1E" transform="translate(252.1875,76.625)"/>
<path d="M0 0 C2.8125 1.375 2.8125 1.375 4.8125 3.375 C5.25 5.75 5.25 5.75 4.8125 8.375 C2.625 10.75 2.625 10.75 -0.1875 12.375 C-3.11488742 12.3053003 -4.60345862 11.77778716 -7 10.125 C-8.1875 8.375 -8.1875 8.375 -8.6875 5.9375 C-8.1875 3.375 -8.1875 3.375 -6.0625 0.9375 C-3.1875 -0.625 -3.1875 -0.625 0 0 Z " fill="#1D1D1D" transform="translate(237.1875,76.625)"/>
<path d="M0 0 C2.8125 1.375 2.8125 1.375 4.8125 3.375 C5.25 5.75 5.25 5.75 4.8125 8.375 C2.625 10.75 2.625 10.75 -0.1875 12.375 C-3.11488742 12.3053003 -4.60345862 11.77778716 -7 10.125 C-8.1875 8.375 -8.1875 8.375 -8.6875 5.9375 C-8.1875 3.375 -8.1875 3.375 -6.0625 0.9375 C-3.1875 -0.625 -3.1875 -0.625 0 0 Z " fill="#0D0D0D" transform="translate(27.1875,61.625)"/>
<path d="M0 0 C2.8125 1.375 2.8125 1.375 4.8125 3.375 C5.25 5.75 5.25 5.75 4.8125 8.375 C2.625 10.75 2.625 10.75 -0.1875 12.375 C-3.11488742 12.3053003 -4.60345862 11.77778716 -7 10.125 C-8.1875 8.375 -8.1875 8.375 -8.6875 5.9375 C-8.1875 3.375 -8.1875 3.375 -6.0625 0.9375 C-3.1875 -0.625 -3.1875 -0.625 0 0 Z " fill="#1E1E1E" transform="translate(417.1875,61.625)"/>
<path d="M0 0 C2.8125 1.375 2.8125 1.375 4.8125 3.375 C5.25 5.75 5.25 5.75 4.8125 8.375 C2.625 10.75 2.625 10.75 -0.1875 12.375 C-3.11488742 12.3053003 -4.60345862 11.77778716 -7 10.125 C-8.1875 8.375 -8.1875 8.375 -8.6875 5.9375 C-8.1875 3.375 -8.1875 3.375 -6.0625 0.9375 C-3.1875 -0.625 -3.1875 -0.625 0 0 Z " fill="#181717" transform="translate(282.1875,61.625)"/>
<path d="M0 0 C2.8125 1.375 2.8125 1.375 4.8125 3.375 C5.25 5.75 5.25 5.75 4.8125 8.375 C2.625 10.75 2.625 10.75 -0.1875 12.375 C-3.11488742 12.3053003 -4.60345862 11.77778716 -7 10.125 C-8.1875 8.375 -8.1875 8.375 -8.6875 5.9375 C-8.1875 3.375 -8.1875 3.375 -6.0625 0.9375 C-3.1875 -0.625 -3.1875 -0.625 0 0 Z " fill="#1E1E1E" transform="translate(252.1875,61.625)"/>
<path d="M0 0 C2.8125 1.375 2.8125 1.375 4.8125 3.375 C5.25 5.75 5.25 5.75 4.8125 8.375 C2.625 10.75 2.625 10.75 -0.1875 12.375 C-3.11488742 12.3053003 -4.60345862 11.77778716 -7 10.125 C-8.1875 8.375 -8.1875 8.375 -8.6875 5.9375 C-8.1875 3.375 -8.1875 3.375 -6.0625 0.9375 C-3.1875 -0.625 -3.1875 -0.625 0 0 Z " fill="#151515" transform="translate(117.1875,61.625)"/>
<path d="M0 0 C2.8125 1.375 2.8125 1.375 4.8125 3.375 C5.25 5.75 5.25 5.75 4.8125 8.375 C2.625 10.75 2.625 10.75 -0.1875 12.375 C-3.11488742 12.3053003 -4.60345862 11.77778716 -7 10.125 C-8.1875 8.375 -8.1875 8.375 -8.6875 5.9375 C-8.1875 3.375 -8.1875 3.375 -6.0625 0.9375 C-3.1875 -0.625 -3.1875 -0.625 0 0 Z " fill="#1E1E1E" transform="translate(42.1875,61.625)"/>
<path d="M0 0 C2.8125 1.375 2.8125 1.375 4.8125 3.375 C5.25 5.75 5.25 5.75 4.8125 8.375 C2.625 10.75 2.625 10.75 -0.1875 12.375 C-3.11488742 12.3053003 -4.60345862 11.77778716 -7 10.125 C-8.1875 8.375 -8.1875 8.375 -8.6875 5.9375 C-8.1875 3.375 -8.1875 3.375 -6.0625 0.9375 C-3.1875 -0.625 -3.1875 -0.625 0 0 Z " fill="#141414" transform="translate(477.1875,61.625)"/>
<path d="M0 0 C2.8125 1.375 2.8125 1.375 4.8125 3.375 C5.25 5.75 5.25 5.75 4.8125 8.375 C2.625 10.75 2.625 10.75 -0.1875 12.375 C-3.11488742 12.3053003 -4.60345862 11.77778716 -7 10.125 C-8.1875 8.375 -8.1875 8.375 -8.6875 5.9375 C-8.1875 3.375 -8.1875 3.375 -6.0625 0.9375 C-3.1875 -0.625 -3.1875 -0.625 0 0 Z " fill="#1C1C1C" transform="translate(462.1875,61.625)"/>
<path d="M0 0 C2.8125 1.375 2.8125 1.375 4.8125 3.375 C5.25 5.75 5.25 5.75 4.8125 8.375 C2.625 10.75 2.625 10.75 -0.1875 12.375 C-3.11488742 12.3053003 -4.60345862 11.77778716 -7 10.125 C-8.1875 8.375 -8.1875 8.375 -8.6875 5.9375 C-8.1875 3.375 -8.1875 3.375 -6.0625 0.9375 C-3.1875 -0.625 -3.1875 -0.625 0 0 Z " fill="#1E1E1E" transform="translate(402.1875,61.625)"/>
<path d="M0 0 C2.8125 1.375 2.8125 1.375 4.8125 3.375 C5.25 5.75 5.25 5.75 4.8125 8.375 C2.625 10.75 2.625 10.75 -0.1875 12.375 C-3.11488742 12.3053003 -4.60345862 11.77778716 -7 10.125 C-8.1875 8.375 -8.1875 8.375 -8.6875 5.9375 C-8.1875 3.375 -8.1875 3.375 -6.0625 0.9375 C-3.1875 -0.625 -3.1875 -0.625 0 0 Z " fill="#1D1D1D" transform="translate(312.1875,61.625)"/>
<path d="M0 0 C2.8125 1.375 2.8125 1.375 4.8125 3.375 C5.25 5.75 5.25 5.75 4.8125 8.375 C2.625 10.75 2.625 10.75 -0.1875 12.375 C-3.11488742 12.3053003 -4.60345862 11.77778716 -7 10.125 C-8.1875 8.375 -8.1875 8.375 -8.6875 5.9375 C-8.1875 3.375 -8.1875 3.375 -6.0625 0.9375 C-3.1875 -0.625 -3.1875 -0.625 0 0 Z " fill="#1E1E1E" transform="translate(297.1875,61.625)"/>
<path d="M0 0 C2.8125 1.375 2.8125 1.375 4.8125 3.375 C5.25 5.75 5.25 5.75 4.8125 8.375 C2.625 10.75 2.625 10.75 -0.1875 12.375 C-3.11488742 12.3053003 -4.60345862 11.77778716 -7 10.125 C-8.1875 8.375 -8.1875 8.375 -8.6875 5.9375 C-8.1875 3.375 -8.1875 3.375 -6.0625 0.9375 C-3.1875 -0.625 -3.1875 -0.625 0 0 Z " fill="#151515" transform="translate(237.1875,61.625)"/>
<path d="M0 0 C2.8125 1.375 2.8125 1.375 4.8125 3.375 C5.25 5.75 5.25 5.75 4.8125 8.375 C2.625 10.75 2.625 10.75 -0.1875 12.375 C-3.11488742 12.3053003 -4.60345862 11.77778716 -7 10.125 C-8.1875 8.375 -8.1875 8.375 -8.6875 5.9375 C-8.1875 3.375 -8.1875 3.375 -6.0625 0.9375 C-3.1875 -0.625 -3.1875 -0.625 0 0 Z " fill="#1E1E1E" transform="translate(222.1875,61.625)"/>
<path d="M0 0 C2.8125 1.375 2.8125 1.375 4.8125 3.375 C5.25 5.75 5.25 5.75 4.8125 8.375 C2.625 10.75 2.625 10.75 -0.1875 12.375 C-3.11488742 12.3053003 -4.60345862 11.77778716 -7 10.125 C-8.1875 8.375 -8.1875 8.375 -8.6875 5.9375 C-8.1875 3.375 -8.1875 3.375 -6.0625 0.9375 C-3.1875 -0.625 -3.1875 -0.625 0 0 Z " fill="#1D1D1D" transform="translate(162.1875,61.625)"/>
<path d="M0 0 C2.8125 1.375 2.8125 1.375 4.8125 3.375 C5.25 5.75 5.25 5.75 4.8125 8.375 C2.625 10.75 2.625 10.75 -0.1875 12.375 C-3.11488742 12.3053003 -4.60345862 11.77778716 -7 10.125 C-8.1875 8.375 -8.1875 8.375 -8.6875 5.9375 C-8.1875 3.375 -8.1875 3.375 -6.0625 0.9375 C-3.1875 -0.625 -3.1875 -0.625 0 0 Z " fill="#1E1E1E" transform="translate(147.1875,61.625)"/>
<path d="M0 0 C2.8125 1.375 2.8125 1.375 4.8125 3.375 C5.25 5.75 5.25 5.75 4.8125 8.375 C2.625 10.75 2.625 10.75 -0.1875 12.375 C-3.11488742 12.3053003 -4.60345862 11.77778716 -7 10.125 C-8.1875 8.375 -8.1875 8.375 -8.6875 5.9375 C-8.1875 3.375 -8.1875 3.375 -6.0625 0.9375 C-3.1875 -0.625 -3.1875 -0.625 0 0 Z " fill="#141414" transform="translate(132.1875,61.625)"/>
<path d="M0 0 C2.8125 1.375 2.8125 1.375 4.8125 3.375 C5.25 5.75 5.25 5.75 4.8125 8.375 C2.625 10.75 2.625 10.75 -0.1875 12.375 C-3.11488742 12.3053003 -4.60345862 11.77778716 -7 10.125 C-8.1875 8.375 -8.1875 8.375 -8.6875 5.9375 C-8.1875 3.375 -8.1875 3.375 -6.0625 0.9375 C-3.1875 -0.625 -3.1875 -0.625 0 0 Z " fill="#1B1B1B" transform="translate(402.1875,46.625)"/>
<path d="M0 0 C2.8125 1.375 2.8125 1.375 4.8125 3.375 C5.25 5.75 5.25 5.75 4.8125 8.375 C2.625 10.75 2.625 10.75 -0.1875 12.375 C-3.11488742 12.3053003 -4.60345862 11.77778716 -7 10.125 C-8.1875 8.375 -8.1875 8.375 -8.6875 5.9375 C-8.1875 3.375 -8.1875 3.375 -6.0625 0.9375 C-3.1875 -0.625 -3.1875 -0.625 0 0 Z " fill="#1E1E1E" transform="translate(147.1875,46.625)"/>
<path d="M0 0 C2.8125 1.375 2.8125 1.375 4.8125 3.375 C4.6875 6.875 4.6875 6.875 3.8125 10.375 C1.48514764 12.36987345 0.28725877 12.40973845 -2.75 12.1875 C-5.43688496 11.29187168 -6.59914878 10.71572811 -8.1875 8.375 C-8.6875 5.9375 -8.6875 5.9375 -8.1875 3.375 C-5.37153936 0.14492751 -4.29424586 -0.84200899 0 0 Z " fill="#101010" transform="translate(522.1875,46.625)"/>
<path d="M0 0 C2.8125 1.375 2.8125 1.375 4.8125 3.375 C5.25 5.75 5.25 5.75 4.8125 8.375 C2.625 10.75 2.625 10.75 -0.1875 12.375 C-3.11488742 12.3053003 -4.60345862 11.77778716 -7 10.125 C-8.1875 8.375 -8.1875 8.375 -8.6875 5.9375 C-8.1875 3.375 -8.1875 3.375 -6.0625 0.9375 C-3.1875 -0.625 -3.1875 -0.625 0 0 Z " fill="#121212" transform="translate(477.1875,46.625)"/>
<path d="M0 0 C2.8125 1.375 2.8125 1.375 4.8125 3.375 C5.25 5.75 5.25 5.75 4.8125 8.375 C2.625 10.75 2.625 10.75 -0.1875 12.375 C-3.11488742 12.3053003 -4.60345862 11.77778716 -7 10.125 C-8.1875 8.375 -8.1875 8.375 -8.6875 5.9375 C-8.1875 3.375 -8.1875 3.375 -6.0625 0.9375 C-3.1875 -0.625 -3.1875 -0.625 0 0 Z " fill="#090909" transform="translate(462.1875,46.625)"/>
<path d="M0 0 C2.8125 1.375 2.8125 1.375 4.8125 3.375 C5.25 5.75 5.25 5.75 4.8125 8.375 C2.625 10.75 2.625 10.75 -0.1875 12.375 C-3.11488742 12.3053003 -4.60345862 11.77778716 -7 10.125 C-8.1875 8.375 -8.1875 8.375 -8.6875 5.9375 C-8.1875 3.375 -8.1875 3.375 -6.0625 0.9375 C-3.1875 -0.625 -3.1875 -0.625 0 0 Z " fill="#1D1D1D" transform="translate(297.1875,46.625)"/>
<path d="M0 0 C2.8125 1.375 2.8125 1.375 4.8125 3.375 C5.25 5.75 5.25 5.75 4.8125 8.375 C2.625 10.75 2.625 10.75 -0.1875 12.375 C-3.11488742 12.3053003 -4.60345862 11.77778716 -7 10.125 C-8.1875 8.375 -8.1875 8.375 -8.6875 5.9375 C-8.1875 3.375 -8.1875 3.375 -6.0625 0.9375 C-3.1875 -0.625 -3.1875 -0.625 0 0 Z " fill="#0C0C0C" transform="translate(282.1875,46.625)"/>
<path d="M0 0 C2.8125 1.375 2.8125 1.375 4.8125 3.375 C5.25 5.75 5.25 5.75 4.8125 8.375 C2.625 10.75 2.625 10.75 -0.1875 12.375 C-3.11488742 12.3053003 -4.60345862 11.77778716 -7 10.125 C-8.1875 8.375 -8.1875 8.375 -8.6875 5.9375 C-8.1875 3.375 -8.1875 3.375 -6.0625 0.9375 C-3.1875 -0.625 -3.1875 -0.625 0 0 Z " fill="#161616" transform="translate(192.1875,46.625)"/>
<path d="M0 0 C2.8125 1.375 2.8125 1.375 4.8125 3.375 C5.25 5.75 5.25 5.75 4.8125 8.375 C2.625 10.75 2.625 10.75 -0.1875 12.375 C-3.11488742 12.3053003 -4.60345862 11.77778716 -7 10.125 C-8.1875 8.375 -8.1875 8.375 -8.6875 5.9375 C-8.1875 3.375 -8.1875 3.375 -6.0625 0.9375 C-3.1875 -0.625 -3.1875 -0.625 0 0 Z " fill="#1E1E1E" transform="translate(162.1875,46.625)"/>
<path d="M0 0 C2.8125 1.375 2.8125 1.375 4.8125 3.375 C5.25 5.75 5.25 5.75 4.8125 8.375 C2.625 10.75 2.625 10.75 -0.1875 12.375 C-3.11488742 12.3053003 -4.60345862 11.77778716 -7 10.125 C-8.1875 8.375 -8.1875 8.375 -8.6875 5.9375 C-8.1875 3.375 -8.1875 3.375 -6.0625 0.9375 C-3.1875 -0.625 -3.1875 -0.625 0 0 Z " fill="#141414" transform="translate(42.1875,46.625)"/>
<path d="M0 0 C2.8125 1.375 2.8125 1.375 4.8125 3.375 C5.25 5.75 5.25 5.75 4.8125 8.375 C2.625 10.75 2.625 10.75 -0.1875 12.375 C-3.11488742 12.3053003 -4.60345862 11.77778716 -7 10.125 C-8.1875 8.375 -8.1875 8.375 -8.6875 5.9375 C-8.1875 3.375 -8.1875 3.375 -6.0625 0.9375 C-3.1875 -0.625 -3.1875 -0.625 0 0 Z " fill="#191919" transform="translate(27.1875,46.625)"/>
<path d="M0 0 C2.8125 1.375 2.8125 1.375 4.8125 3.375 C5.25 5.75 5.25 5.75 4.8125 8.375 C2.625 10.75 2.625 10.75 -0.1875 12.375 C-3.11488742 12.3053003 -4.60345862 11.77778716 -7 10.125 C-8.1875 8.375 -8.1875 8.375 -8.6875 5.9375 C-8.1875 3.375 -8.1875 3.375 -6.0625 0.9375 C-3.1875 -0.625 -3.1875 -0.625 0 0 Z " fill="#0A0A0A" transform="translate(417.1875,46.625)"/>
<path d="M0 0 C2.8125 1.375 2.8125 1.375 4.8125 3.375 C5.25 5.75 5.25 5.75 4.8125 8.375 C2.625 10.75 2.625 10.75 -0.1875 12.375 C-3.11488742 12.3053003 -4.60345862 11.77778716 -7 10.125 C-8.1875 8.375 -8.1875 8.375 -8.6875 5.9375 C-8.1875 3.375 -8.1875 3.375 -6.0625 0.9375 C-3.1875 -0.625 -3.1875 -0.625 0 0 Z " fill="#1E1E1E" transform="translate(42.1875,31.625)"/>
<path d="M0 0 C2.8125 1.375 2.8125 1.375 4.8125 3.375 C5.25 5.75 5.25 5.75 4.8125 8.375 C2.625 10.75 2.625 10.75 -0.1875 12.375 C-3.11488742 12.3053003 -4.60345862 11.77778716 -7 10.125 C-8.1875 8.375 -8.1875 8.375 -8.6875 5.9375 C-8.1875 3.375 -8.1875 3.375 -6.0625 0.9375 C-3.1875 -0.625 -3.1875 -0.625 0 0 Z " fill="#191919" transform="translate(282.1875,31.625)"/>
<path d="M0 0 C2.8125 1.375 2.8125 1.375 4.8125 3.375 C5.25 5.75 5.25 5.75 4.8125 8.375 C2.625 10.75 2.625 10.75 -0.1875 12.375 C-3.11488742 12.3053003 -4.60345862 11.77778716 -7 10.125 C-8.1875 8.375 -8.1875 8.375 -8.6875 5.9375 C-8.1875 3.375 -8.1875 3.375 -6.0625 0.9375 C-3.1875 -0.625 -3.1875 -0.625 0 0 Z " fill="#141414" transform="translate(462.1875,31.625)"/>
<path d="M0 0 C2.8125 1.375 2.8125 1.375 4.8125 3.375 C5.25 5.75 5.25 5.75 4.8125 8.375 C2.625 10.75 2.625 10.75 -0.1875 12.375 C-3.11488742 12.3053003 -4.60345862 11.77778716 -7 10.125 C-8.1875 8.375 -8.1875 8.375 -8.6875 5.9375 C-8.1875 3.375 -8.1875 3.375 -6.0625 0.9375 C-3.1875 -0.625 -3.1875 -0.625 0 0 Z " fill="#161616" transform="translate(417.1875,31.625)"/>
<path d="M0 0 C2.8125 1.375 2.8125 1.375 4.8125 3.375 C5.25 5.75 5.25 5.75 4.8125 8.375 C2.625 10.75 2.625 10.75 -0.1875 12.375 C-3.11488742 12.3053003 -4.60345862 11.77778716 -7 10.125 C-8.1875 8.375 -8.1875 8.375 -8.6875 5.9375 C-8.1875 3.375 -8.1875 3.375 -6.0625 0.9375 C-3.1875 -0.625 -3.1875 -0.625 0 0 Z " fill="#151515" transform="translate(222.1875,31.625)"/>
<path d="M0 0 C2.8125 1.375 2.8125 1.375 4.8125 3.375 C5.25 5.75 5.25 5.75 4.8125 8.375 C2.625 10.75 2.625 10.75 -0.1875 12.375 C-3.11488742 12.3053003 -4.60345862 11.77778716 -7 10.125 C-8.1875 8.375 -8.1875 8.375 -8.6875 5.9375 C-8.1875 3.375 -8.1875 3.375 -6.0625 0.9375 C-3.1875 -0.625 -3.1875 -0.625 0 0 Z " fill="#1E1E1E" transform="translate(522.1875,31.625)"/>
<path d="M0 0 C2.8125 1.375 2.8125 1.375 4.8125 3.375 C5.25 5.75 5.25 5.75 4.8125 8.375 C2.625 10.75 2.625 10.75 -0.1875 12.375 C-3.11488742 12.3053003 -4.60345862 11.77778716 -7 10.125 C-8.1875 8.375 -8.1875 8.375 -8.6875 5.9375 C-8.1875 3.375 -8.1875 3.375 -6.0625 0.9375 C-3.1875 -0.625 -3.1875 -0.625 0 0 Z " fill="#1B1B1B" transform="translate(402.1875,31.625)"/>
<path d="M0 0 C2.8125 1.375 2.8125 1.375 4.8125 3.375 C5.25 5.75 5.25 5.75 4.8125 8.375 C2.625 10.75 2.625 10.75 -0.1875 12.375 C-3.11488742 12.3053003 -4.60345862 11.77778716 -7 10.125 C-8.1875 8.375 -8.1875 8.375 -8.6875 5.9375 C-8.1875 3.375 -8.1875 3.375 -6.0625 0.9375 C-3.1875 -0.625 -3.1875 -0.625 0 0 Z " fill="#161616" transform="translate(297.1875,31.625)"/>
<path d="M0 0 C2.8125 1.375 2.8125 1.375 4.8125 3.375 C5.25 5.75 5.25 5.75 4.8125 8.375 C2.625 10.75 2.625 10.75 -0.1875 12.375 C-3.11488742 12.3053003 -4.60345862 11.77778716 -7 10.125 C-8.1875 8.375 -8.1875 8.375 -8.6875 5.9375 C-8.1875 3.375 -8.1875 3.375 -6.0625 0.9375 C-3.1875 -0.625 -3.1875 -0.625 0 0 Z " fill="#161616" transform="translate(147.1875,31.625)"/>
<path d="M0 0 C2.8125 1.375 2.8125 1.375 4.8125 3.375 C5.25 5.75 5.25 5.75 4.8125 8.375 C2.625 10.75 2.625 10.75 -0.1875 12.375 C-3.11488742 12.3053003 -4.60345862 11.77778716 -7 10.125 C-8.1875 8.375 -8.1875 8.375 -8.6875 5.9375 C-8.1875 3.375 -8.1875 3.375 -6.0625 0.9375 C-3.1875 -0.625 -3.1875 -0.625 0 0 Z " fill="#1A1A1A" transform="translate(27.1875,31.625)"/>
<path d="M0 0 C2.8125 1.375 2.8125 1.375 4.8125 3.375 C5.25 5.75 5.25 5.75 4.8125 8.375 C2.625 10.75 2.625 10.75 -0.1875 12.375 C-3.11488742 12.3053003 -4.60345862 11.77778716 -7 10.125 C-8.1875 8.375 -8.1875 8.375 -8.6875 5.9375 C-8.1875 3.375 -8.1875 3.375 -6.0625 0.9375 C-3.1875 -0.625 -3.1875 -0.625 0 0 Z " fill="#1E1E1E" transform="translate(477.1875,31.625)"/>
<path d="M0 0 C2.8125 1.375 2.8125 1.375 4.8125 3.375 C5.25 5.75 5.25 5.75 4.8125 8.375 C2.625 10.75 2.625 10.75 -0.1875 12.375 C-3.11488742 12.3053003 -4.60345862 11.77778716 -7 10.125 C-8.1875 8.375 -8.1875 8.375 -8.6875 5.9375 C-8.1875 3.375 -8.1875 3.375 -6.0625 0.9375 C-3.1875 -0.625 -3.1875 -0.625 0 0 Z " fill="#141414" transform="translate(342.1875,31.625)"/>
<path d="M0 0 C2.8125 1.375 2.8125 1.375 4.8125 3.375 C5.25 5.75 5.25 5.75 4.8125 8.375 C2.625 10.75 2.625 10.75 -0.1875 12.375 C-3.11488742 12.3053003 -4.60345862 11.77778716 -7 10.125 C-8.1875 8.375 -8.1875 8.375 -8.6875 5.9375 C-8.1875 3.375 -8.1875 3.375 -6.0625 0.9375 C-3.1875 -0.625 -3.1875 -0.625 0 0 Z " fill="#1E1E1E" transform="translate(252.1875,31.625)"/>
<path d="M0 0 C2.8125 1.375 2.8125 1.375 4.8125 3.375 C5.25 5.75 5.25 5.75 4.8125 8.375 C2.625 10.75 2.625 10.75 -0.1875 12.375 C-3.11488742 12.3053003 -4.60345862 11.77778716 -7 10.125 C-8.1875 8.375 -8.1875 8.375 -8.6875 5.9375 C-8.1875 3.375 -8.1875 3.375 -6.0625 0.9375 C-3.1875 -0.625 -3.1875 -0.625 0 0 Z " fill="#151515" transform="translate(237.1875,31.625)"/>
<path d="M0 0 C2.8125 1.375 2.8125 1.375 4.8125 3.375 C5.25 5.75 5.25 5.75 4.8125 8.375 C2.625 10.75 2.625 10.75 -0.1875 12.375 C-3.11488742 12.3053003 -4.60345862 11.77778716 -7 10.125 C-8.1875 8.375 -8.1875 8.375 -8.6875 5.9375 C-8.1875 3.375 -8.1875 3.375 -6.0625 0.9375 C-3.1875 -0.625 -3.1875 -0.625 0 0 Z " fill="#111111" transform="translate(207.1875,31.625)"/>
<path d="M0 0 C2.8125 1.375 2.8125 1.375 4.8125 3.375 C5.25 5.75 5.25 5.75 4.8125 8.375 C2.625 10.75 2.625 10.75 -0.1875 12.375 C-3.11488742 12.3053003 -4.60345862 11.77778716 -7 10.125 C-8.1875 8.375 -8.1875 8.375 -8.6875 5.9375 C-8.1875 3.375 -8.1875 3.375 -6.0625 0.9375 C-3.1875 -0.625 -3.1875 -0.625 0 0 Z " fill="#1E1E1E" transform="translate(132.1875,31.625)"/>
<path d="M0 0 C2.8125 1.375 2.8125 1.375 4.8125 3.375 C5.25 5.75 5.25 5.75 4.8125 8.375 C2.625 10.75 2.625 10.75 -0.1875 12.375 C-3.11488742 12.3053003 -4.60345862 11.77778716 -7 10.125 C-8.1875 8.375 -8.1875 8.375 -8.6875 5.9375 C-8.1875 3.375 -8.1875 3.375 -6.0625 0.9375 C-3.1875 -0.625 -3.1875 -0.625 0 0 Z " fill="#151515" transform="translate(117.1875,31.625)"/>
<path d="M0 0 C2.8125 1.375 2.8125 1.375 4.8125 3.375 C5.25 5.75 5.25 5.75 4.8125 8.375 C2.625 10.75 2.625 10.75 -0.1875 12.375 C-3.11488742 12.3053003 -4.60345862 11.77778716 -7 10.125 C-8.1875 8.375 -8.1875 8.375 -8.6875 5.9375 C-8.1875 3.375 -8.1875 3.375 -6.0625 0.9375 C-3.1875 -0.625 -3.1875 -0.625 0 0 Z " fill="#161616" transform="translate(417.1875,16.625)"/>
<path d="M0 0 C2.8125 1.375 2.8125 1.375 4.8125 3.375 C5.25 5.75 5.25 5.75 4.8125 8.375 C2.625 10.75 2.625 10.75 -0.1875 12.375 C-3.11488742 12.3053003 -4.60345862 11.77778716 -7 10.125 C-8.1875 8.375 -8.1875 8.375 -8.6875 5.9375 C-8.1875 3.375 -8.1875 3.375 -6.0625 0.9375 C-3.1875 -0.625 -3.1875 -0.625 0 0 Z " fill="#161616" transform="translate(402.1875,16.625)"/>
<path d="M0 0 C2.8125 1.375 2.8125 1.375 4.8125 3.375 C5.25 5.75 5.25 5.75 4.8125 8.375 C2.625 10.75 2.625 10.75 -0.1875 12.375 C-3.11488742 12.3053003 -4.60345862 11.77778716 -7 10.125 C-8.1875 8.375 -8.1875 8.375 -8.6875 5.9375 C-8.1875 3.375 -8.1875 3.375 -6.0625 0.9375 C-3.1875 -0.625 -3.1875 -0.625 0 0 Z " fill="#1D1D1D" transform="translate(57.1875,16.625)"/>
<path d="M0 0 C2.8125 1.375 2.8125 1.375 4.8125 3.375 C5.25 5.75 5.25 5.75 4.8125 8.375 C2.625 10.75 2.625 10.75 -0.1875 12.375 C-3.11488742 12.3053003 -4.60345862 11.77778716 -7 10.125 C-8.1875 8.375 -8.1875 8.375 -8.6875 5.9375 C-8.1875 3.375 -8.1875 3.375 -6.0625 0.9375 C-3.1875 -0.625 -3.1875 -0.625 0 0 Z " fill="#171717" transform="translate(12.1875,16.625)"/>
<path d="M0 0 C2.8125 1.375 2.8125 1.375 4.8125 3.375 C5.25 5.75 5.25 5.75 4.8125 8.375 C2.625 10.75 2.625 10.75 -0.1875 12.375 C-3.11488742 12.3053003 -4.60345862 11.77778716 -7 10.125 C-8.1875 8.375 -8.1875 8.375 -8.6875 5.9375 C-8.1875 3.375 -8.1875 3.375 -6.0625 0.9375 C-3.1875 -0.625 -3.1875 -0.625 0 0 Z " fill="#161616" transform="translate(297.1875,16.625)"/>
<path d="M0 0 C2.8125 1.375 2.8125 1.375 4.8125 3.375 C5.25 5.75 5.25 5.75 4.8125 8.375 C2.625 10.75 2.625 10.75 -0.1875 12.375 C-3.11488742 12.3053003 -4.60345862 11.77778716 -7 10.125 C-8.1875 8.375 -8.1875 8.375 -8.6875 5.9375 C-8.1875 3.375 -8.1875 3.375 -6.0625 0.9375 C-3.1875 -0.625 -3.1875 -0.625 0 0 Z " fill="#1F1F1F" transform="translate(72.1875,16.625)"/>
<path d="M0 0 C2.8125 1.375 2.8125 1.375 4.8125 3.375 C5.25 5.75 5.25 5.75 4.8125 8.375 C2.625 10.75 2.625 10.75 -0.1875 12.375 C-3.11488742 12.3053003 -4.60345862 11.77778716 -7 10.125 C-8.1875 8.375 -8.1875 8.375 -8.6875 5.9375 C-8.1875 3.375 -8.1875 3.375 -6.0625 0.9375 C-3.1875 -0.625 -3.1875 -0.625 0 0 Z " fill="#1E1E1E" transform="translate(42.1875,16.625)"/>
<path d="M0 0 C2.8125 1.375 2.8125 1.375 4.8125 3.375 C4.66612273 6.81486596 4.39709664 8.72776801 2.0625 11.3125 C-0.1875 12.375 -0.1875 12.375 -2.75 12.25 C-5.40374257 11.29737446 -6.60602277 10.70559802 -8.1875 8.375 C-8.6875 5.9375 -8.6875 5.9375 -8.1875 3.375 C-5.37153936 0.14492751 -4.29424586 -0.84200899 0 0 Z " fill="#181818" transform="translate(477.1875,106.625)"/>
<path d="M0 0 C2.8125 1.375 2.8125 1.375 4.8125 3.375 C4.66612273 6.81486596 4.39709664 8.72776801 2.0625 11.3125 C-0.1875 12.375 -0.1875 12.375 -2.75 12.25 C-5.40374257 11.29737446 -6.60602277 10.70559802 -8.1875 8.375 C-8.6875 5.9375 -8.6875 5.9375 -8.1875 3.375 C-5.37153936 0.14492751 -4.29424586 -0.84200899 0 0 Z " fill="#0A0A0A" transform="translate(462.1875,106.625)"/>
<path d="M0 0 C2.8125 1.375 2.8125 1.375 4.8125 3.375 C4.66612273 6.81486596 4.39709664 8.72776801 2.0625 11.3125 C-0.1875 12.375 -0.1875 12.375 -2.75 12.25 C-5.40374257 11.29737446 -6.60602277 10.70559802 -8.1875 8.375 C-8.6875 5.9375 -8.6875 5.9375 -8.1875 3.375 C-5.37153936 0.14492751 -4.29424586 -0.84200899 0 0 Z " fill="#161616" transform="translate(27.1875,91.625)"/>
<path d="M0 0 C2.8125 1.375 2.8125 1.375 4.8125 3.375 C4.66612273 6.81486596 4.39709664 8.72776801 2.0625 11.3125 C-0.1875 12.375 -0.1875 12.375 -2.75 12.25 C-5.40374257 11.29737446 -6.60602277 10.70559802 -8.1875 8.375 C-8.6875 5.9375 -8.6875 5.9375 -8.1875 3.375 C-5.37153936 0.14492751 -4.29424586 -0.84200899 0 0 Z " fill="#1A1A1A" transform="translate(522.1875,61.625)"/>
<path d="M0 0 C2.8125 1.375 2.8125 1.375 4.8125 3.375 C4.9375 6 4.9375 6 4.8125 8.375 C3.8225 8.87 3.8225 8.87 2.8125 9.375 C2.85375 8.59125 2.895 7.8075 2.9375 7 C3.09978734 4.21383881 3.09978734 4.21383881 0.8125 2.375 C-1.79030568 2.69541397 -1.79030568 2.69541397 -4.1875 3.375 C-3.5275 3.375 -2.8675 3.375 -2.1875 3.375 C-2.8475 5.025 -3.5075 6.675 -4.1875 8.375 C-2.8675 9.695 -1.5475 11.015 -0.1875 12.375 C-2.8510969 12.01505447 -4.76933452 11.66338998 -7 10.125 C-8.1875 8.375 -8.1875 8.375 -8.6875 5.9375 C-8.1875 3.375 -8.1875 3.375 -6.0625 0.9375 C-3.1875 -0.625 -3.1875 -0.625 0 0 Z " fill="#111111" transform="translate(192.1875,91.625)"/>
<path d="M0 0 C0.66 0.66 1.32 1.32 2 2 C1.875 5.5 1.875 5.5 1 9 C-1.32735236 10.99487345 -2.52524123 11.03473845 -5.5625 10.8125 C-8.31191087 9.89602971 -9.50101314 9.49831143 -11 7 C-10.9375 3.4375 -10.9375 3.4375 -10 0 C-6.66845292 -3.08476581 -3.84496762 -1.67172505 0 0 Z M-7.8125 1.1875 C-9.27508617 3.00808993 -9.27508617 3.00808993 -8.75 5.625 C-8.22254355 7.9312407 -8.22254355 7.9312407 -7 9 C-5.33382885 9.04063832 -3.66611905 9.042721 -2 9 C-0.76603959 7.2857711 -0.76603959 7.2857711 0 5 C-0.78702351 2.2806707 -0.78702351 2.2806707 -2 0 C-5.80350374 -0.36535084 -5.80350374 -0.36535084 -7.8125 1.1875 Z " fill="#0B0B0B" transform="translate(195,63)"/>
<path d="M0 0 C1.98 0 3.96 0 6 0 C7.35439668 2.70879335 7.06501451 5.00933268 7 8 C4.39417629 8.93065133 3.35801776 9.14917407 0.75 8.0625 C0.1725 7.711875 -0.405 7.36125 -1 7 C-0.67 4.69 -0.34 2.38 0 0 Z " fill="#1C1C1C" transform="translate(457,48)"/>
<path d="M0 0 C2.8125 1.375 2.8125 1.375 4.8125 3.375 C5.25 5.75 5.25 5.75 4.8125 8.375 C2.625 10.75 2.625 10.75 -0.1875 12.375 C-3.11488742 12.3053003 -4.60345862 11.77778716 -7 10.125 C-8.1875 8.375 -8.1875 8.375 -8.6875 5.9375 C-8.1875 3.375 -8.1875 3.375 -6.0625 0.9375 C-3.1875 -0.625 -3.1875 -0.625 0 0 Z M-5 3.125 C-6.42254687 5.28983564 -6.42254687 5.28983564 -5.875 7.625 C-5.648125 8.2025 -5.42125 8.78 -5.1875 9.375 C-2.83382287 10.0628236 -2.83382287 10.0628236 -0.1875 10.375 C0.8025 9.715 1.7925 9.055 2.8125 8.375 C3.22916667 5.875 3.22916667 5.875 2.8125 3.375 C2.1525 2.715 1.4925 2.055 0.8125 1.375 C-3.12780828 0.91193699 -3.12780828 0.91193699 -5 3.125 Z " fill="#0A0A0A" transform="translate(42.1875,31.625)"/>
<path d="M0 0 C2.8125 1.375 2.8125 1.375 4.8125 3.375 C5.25 5.75 5.25 5.75 4.8125 8.375 C2.625 10.75 2.625 10.75 -0.1875 12.375 C-3.11488742 12.3053003 -4.60345862 11.77778716 -7 10.125 C-8.1875 8.375 -8.1875 8.375 -8.6875 5.9375 C-8.1875 3.375 -8.1875 3.375 -6.0625 0.9375 C-3.1875 -0.625 -3.1875 -0.625 0 0 Z M-6.1875 3.375 C-6.35431109 6.45847826 -6.35431109 6.45847826 -6.1875 9.375 C-3.27267222 10.18467438 -1.72636783 10.59345993 1.125 9.4375 C1.681875 9.086875 2.23875 8.73625 2.8125 8.375 C2.53709296 4.55686553 2.53709296 4.55686553 0.8125 1.375 C-3.148668 0.98409667 -3.148668 0.98409667 -6.1875 3.375 Z " fill="#0A0A0A" transform="translate(492.1875,106.625)"/>
<path d="M0 0 C2 2 2 2 2.4375 4.375 C2 7 2 7 -0.1875 9.375 C-3 11 -3 11 -5.625 10.9375 C-9.57241379 9.37931034 -9.57241379 9.37931034 -11 7 C-10.9375 3.4375 -10.9375 3.4375 -10 0 C-6.66845292 -3.08476581 -3.84496762 -1.67172505 0 0 Z M-7.9375 1.125 C-9.26380275 3.03554076 -9.26380275 3.03554076 -8.6875 5.6875 C-8.460625 6.450625 -8.23375 7.21375 -8 8 C-5.64632287 8.6878236 -5.64632287 8.6878236 -3 9 C-2.01 8.34 -1.02 7.68 0 7 C0.2502157 3.91634129 0.2502157 3.91634129 0 1 C-4.09542781 -0.14203952 -4.09542781 -0.14203952 -7.9375 1.125 Z " fill="#0B0B0B" transform="translate(30,78)"/>
<path d="M0 0 C2.375 0.1875 2.375 0.1875 5 1 C6.3125 3.5625 6.3125 3.5625 7 6 C5.3125 7.5625 5.3125 7.5625 3 9 C0.25 8.6875 0.25 8.6875 -2 8 C-2.6875 6.25 -2.6875 6.25 -3 4 C-1.5625 1.75 -1.5625 1.75 0 0 Z " fill="#1E1E1E" transform="translate(24,63)"/>
<path d="M0 0 C2 2 2 2 2.4375 4.375 C2 7 2 7 -0.1875 9.375 C-3 11 -3 11 -5.625 10.9375 C-9.57241379 9.37931034 -9.57241379 9.37931034 -11 7 C-10.9375 3.4375 -10.9375 3.4375 -10 0 C-6.66845292 -3.08476581 -3.84496762 -1.67172505 0 0 Z M-7 0 C-9.31543207 2.76988076 -9.31543207 2.76988076 -8.6875 5.625 C-8.2258486 7.93501965 -8.2258486 7.93501965 -7 9 C-5.00041636 9.04080783 -2.99954746 9.04254356 -1 9 C-0.67 6.69 -0.34 4.38 0 2 C-0.99 2 -1.98 2 -3 2 C-3 1.34 -3 0.68 -3 0 C-4.32 0 -5.64 0 -7 0 Z " fill="#0B0B0B" transform="translate(285,18)"/>
<path d="M0 0 C2.8125 1.375 2.8125 1.375 4.8125 3.375 C5.25 5.75 5.25 5.75 4.8125 8.375 C2.625 10.75 2.625 10.75 -0.1875 12.375 C-3.11488742 12.3053003 -4.60345862 11.77778716 -7 10.125 C-8.1875 8.375 -8.1875 8.375 -8.6875 5.9375 C-8.1875 3.375 -8.1875 3.375 -6.0625 0.9375 C-3.1875 -0.625 -3.1875 -0.625 0 0 Z M-6.1875 3.375 C-6.6875 5.875 -6.6875 5.875 -6.1875 8.375 C-3.40635944 10.70891203 -3.40635944 10.70891203 -0.5 10 C0.263125 9.79375 1.02625 9.5875 1.8125 9.375 C2.49051034 6.47426819 2.49051034 6.47426819 2.8125 3.375 C2.1525 2.715 1.4925 2.055 0.8125 1.375 C-3.23372502 1.00519987 -3.23372502 1.00519987 -6.1875 3.375 Z " fill="#0B0B0B" transform="translate(297.1875,76.625)"/>
<path d="M0 0 C1.32 0.99 2.64 1.98 4 3 C3.125 8.875 3.125 8.875 2 10 C0.33382885 10.04063832 -1.33388095 10.042721 -3 10 C-3.66 8.68 -4.32 7.36 -5 6 C-4.34 5.67 -3.68 5.34 -3 5 C-2.835 4.34 -2.67 3.68 -2.5 3 C-2.335 2.34 -2.17 1.68 -2 1 C-1.34 0.67 -0.68 0.34 0 0 Z " fill="#1E1E1E" transform="translate(206,62)"/>
<path d="M0 0 C2.8125 1.375 2.8125 1.375 4.8125 3.375 C5.25 5.75 5.25 5.75 4.8125 8.375 C2.625 10.75 2.625 10.75 -0.1875 12.375 C-3.11488742 12.3053003 -4.60345862 11.77778716 -7 10.125 C-8.1875 8.375 -8.1875 8.375 -8.6875 5.9375 C-8.1875 3.375 -8.1875 3.375 -6.0625 0.9375 C-3.1875 -0.625 -3.1875 -0.625 0 0 Z M-5.1875 2.375 C-6.02307723 5.30508319 -6.02307723 5.30508319 -6.1875 8.375 C-4.28994856 10.72473818 -4.28994856 10.72473818 -1.0625 10.5 C-0.11375 10.45875 0.835 10.4175 1.8125 10.375 C2.57966851 7.52421909 2.57966851 7.52421909 2.8125 4.375 C1.68609395 2.41459519 1.68609395 2.41459519 -0.1875 1.375 C-3.1129644 1.1513932 -3.1129644 1.1513932 -5.1875 2.375 Z " fill="#0D0D0D" transform="translate(42.1875,61.625)"/>
<path d="M0 0 C4 0 4 0 5.8125 1.75 C7 4 7 4 6.6875 6.25 C6.3471875 7.11625 6.3471875 7.11625 6 8 C3.6875 8.625 3.6875 8.625 1 9 C0.01 8.34 -0.98 7.68 -2 7 C-2.3125 4.5 -2.3125 4.5 -2 2 C-1.34 1.34 -0.68 0.68 0 0 Z " fill="#1E1E1E" transform="translate(413,48)"/>
<path d="M0 0 C2.8125 1.375 2.8125 1.375 4.8125 3.375 C5.25 5.75 5.25 5.75 4.8125 8.375 C2.625 10.75 2.625 10.75 -0.1875 12.375 C-3.11488742 12.3053003 -4.60345862 11.77778716 -7 10.125 C-8.1875 8.375 -8.1875 8.375 -8.6875 5.9375 C-8.1875 3.375 -8.1875 3.375 -6.0625 0.9375 C-3.1875 -0.625 -3.1875 -0.625 0 0 Z M-3.1875 1.375 C-5.60597197 3.87984597 -6.1875 4.83513806 -6.1875 8.375 C-5.5275 8.375 -4.8675 8.375 -4.1875 8.375 C-4.1875 9.035 -4.1875 9.695 -4.1875 10.375 C-2.2075 10.375 -0.2275 10.375 1.8125 10.375 C2.48923447 6.97179066 2.48923447 6.97179066 2.8125 3.375 C2.1525 2.715 1.4925 2.055 0.8125 1.375 C-0.5075 1.375 -1.8275 1.375 -3.1875 1.375 Z " fill="#0A0A0A" transform="translate(222.1875,91.625)"/>
<path d="M0 0 C2.8125 1.375 2.8125 1.375 4.8125 3.375 C5.25 5.75 5.25 5.75 4.8125 8.375 C2.625 10.75 2.625 10.75 -0.1875 12.375 C-3.11488742 12.3053003 -4.60345862 11.77778716 -7 10.125 C-8.1875 8.375 -8.1875 8.375 -8.6875 5.9375 C-8.1875 3.375 -8.1875 3.375 -6.0625 0.9375 C-3.1875 -0.625 -3.1875 -0.625 0 0 Z M-4.1875 1.375 C-6.42595015 3.20415641 -6.42595015 3.20415641 -6.5 5.875 C-6.396875 6.7 -6.29375 7.525 -6.1875 8.375 C-3.40635944 10.70891203 -3.40635944 10.70891203 -0.5 10 C0.263125 9.79375 1.02625 9.5875 1.8125 9.375 C2.1425 7.395 2.4725 5.415 2.8125 3.375 C-0.14127498 1.00519987 -0.14127498 1.00519987 -4.1875 1.375 Z " fill="#0B0B0B" transform="translate(417.1875,76.625)"/>
<path d="M0 0 C1.051875 0.4125 2.10375 0.825 3.1875 1.25 C4.5239486 7.68925234 4.5239486 7.68925234 3.0625 10.125 C0.614777 11.5936338 -0.93493866 12.18148663 -3.8125 12.25 C-6.625 10.625 -6.625 10.625 -8.8125 8.25 C-9.4375 5.75 -9.4375 5.75 -8.8125 3.25 C-5.75891771 -0.35877907 -4.71495223 -0.92753159 0 0 Z M-4.8125 1.25 C-7.0616908 3.07703227 -7.0616908 3.07703227 -7.0625 5.75 C-7.0616908 8.42296773 -7.0616908 8.42296773 -4.8125 10.25 C-2.35540625 10.83350505 -2.35540625 10.83350505 0.1875 10.25 C2.0499438 7.84141286 2.0499438 7.84141286 3.1875 5.25 C1.43815102 3.16666921 1.43815102 3.16666921 -0.8125 1.25 C-2.1325 1.25 -3.4525 1.25 -4.8125 1.25 Z " fill="#090809" transform="translate(492.8125,76.75)"/>
<path d="M0 0 C2.8125 1.375 2.8125 1.375 4.8125 3.375 C4.6875 6.875 4.6875 6.875 3.8125 10.375 C1.48514764 12.36987345 0.28725877 12.40973845 -2.75 12.1875 C-5.43688496 11.29187168 -6.59914878 10.71572811 -8.1875 8.375 C-8.6875 5.9375 -8.6875 5.9375 -8.1875 3.375 C-5.37153936 0.14492751 -4.29424586 -0.84200899 0 0 Z M-4.1875 1.375 C-6.55442966 4.22326598 -6.55442966 4.22326598 -5.8125 7.5625 C-5.60625 8.490625 -5.4 9.41875 -5.1875 10.375 C-1.7225 9.88 -1.7225 9.88 1.8125 9.375 C2.58206136 7.02966049 2.58206136 7.02966049 2.8125 4.375 C1.72916667 2.45833333 1.72916667 2.45833333 -0.1875 1.375 C-1.5075 1.375 -2.8275 1.375 -4.1875 1.375 Z " fill="#0A0A0A" transform="translate(522.1875,76.625)"/>
<path d="M0 0 C2.8125 1.375 2.8125 1.375 4.8125 3.375 C4.6875 6.875 4.6875 6.875 3.8125 10.375 C1.48514764 12.36987345 0.28725877 12.40973845 -2.75 12.1875 C-5.43688496 11.29187168 -6.59914878 10.71572811 -8.1875 8.375 C-8.6875 5.9375 -8.6875 5.9375 -8.1875 3.375 C-5.37153936 0.14492751 -4.29424586 -0.84200899 0 0 Z M-5.4375 3.125 C-7.49447031 5.29460301 -7.49447031 5.29460301 -7.1875 8.375 C-3.3371895 10.94187367 -1.60180237 10.20788724 2.8125 9.375 C3.1425 8.385 3.4725 7.395 3.8125 6.375 C2.45104054 3.93870413 1.36286224 2.65905793 -1.125 1.375 C-3.39123327 1.16395791 -3.39123327 1.16395791 -5.4375 3.125 Z " fill="#090909" transform="translate(477.1875,76.625)"/>
<path d="M0 0 C2.8125 1.375 2.8125 1.375 4.8125 3.375 C5.25 5.75 5.25 5.75 4.8125 8.375 C2.625 10.75 2.625 10.75 -0.1875 12.375 C-3.11488742 12.3053003 -4.60345862 11.77778716 -7 10.125 C-8.1875 8.375 -8.1875 8.375 -8.6875 5.9375 C-8.1875 3.375 -8.1875 3.375 -6.0625 0.9375 C-3.1875 -0.625 -3.1875 -0.625 0 0 Z M-4.1875 1.375 C-6.52141203 4.15614056 -6.52141203 4.15614056 -5.8125 7.0625 C-5.60625 7.825625 -5.4 8.58875 -5.1875 9.375 C-2.83382287 10.0628236 -2.83382287 10.0628236 -0.1875 10.375 C0.8025 9.715 1.7925 9.055 2.8125 8.375 C2.53709296 4.55686553 2.53709296 4.55686553 0.8125 1.375 C-1.64542029 1.04156449 -1.64542029 1.04156449 -4.1875 1.375 Z " fill="#0A0A0A" transform="translate(162.1875,76.625)"/>
<path d="M0 0 C2.8125 1.375 2.8125 1.375 4.8125 3.375 C5.25 5.75 5.25 5.75 4.8125 8.375 C2.625 10.75 2.625 10.75 -0.1875 12.375 C-3.11488742 12.3053003 -4.60345862 11.77778716 -7 10.125 C-8.1875 8.375 -8.1875 8.375 -8.6875 5.9375 C-8.1875 3.375 -8.1875 3.375 -6.0625 0.9375 C-3.1875 -0.625 -3.1875 -0.625 0 0 Z M-5.1875 2.375 C-5.86551034 5.27573181 -5.86551034 5.27573181 -6.1875 8.375 C-4.35963728 10.58357238 -4.35963728 10.58357238 -1.75 10.8125 C1.01760095 10.62002782 1.01760095 10.62002782 2.75 8.125 C4.12260485 5.45751106 4.12260485 5.45751106 3 3.0625 C2.608125 2.505625 2.21625 1.94875 1.8125 1.375 C-0.80863708 1.375 -2.69685112 1.68792445 -5.1875 2.375 Z " fill="#0C0C0C" transform="translate(42.1875,16.625)"/>
<path d="M0 0 C2.8125 1.375 2.8125 1.375 4.8125 3.375 C5.25 5.75 5.25 5.75 4.8125 8.375 C2.625 10.75 2.625 10.75 -0.1875 12.375 C-3.11488742 12.3053003 -4.60345862 11.77778716 -7 10.125 C-8.1875 8.375 -8.1875 8.375 -8.6875 5.9375 C-8.1875 3.375 -8.1875 3.375 -6.0625 0.9375 C-3.1875 -0.625 -3.1875 -0.625 0 0 Z M-3.1875 1.375 C-4.5075 3.025 -5.8275 4.675 -7.1875 6.375 C-6.03065671 8.4745533 -6.03065671 8.4745533 -4.1875 10.375 C-1.64491537 10.87514953 -1.64491537 10.87514953 0.8125 10.375 C3.16223818 8.47744856 3.16223818 8.47744856 2.9375 5.25 C2.89625 4.30125 2.855 3.3525 2.8125 2.375 C-0.1575 1.88 -0.1575 1.88 -3.1875 1.375 Z " fill="#0B0B0B" transform="translate(132.1875,91.625)"/>
<path d="M0 0 C2.8125 1.375 2.8125 1.375 4.8125 3.375 C5.25 5.75 5.25 5.75 4.8125 8.375 C2.625 10.75 2.625 10.75 -0.1875 12.375 C-3.11488742 12.3053003 -4.60345862 11.77778716 -7 10.125 C-8.1875 8.375 -8.1875 8.375 -8.6875 5.9375 C-8.1875 3.375 -8.1875 3.375 -6.0625 0.9375 C-3.1875 -0.625 -3.1875 -0.625 0 0 Z M-4.1875 1.375 C-6.55442966 4.22326598 -6.55442966 4.22326598 -5.8125 7.5625 C-5.60625 8.490625 -5.4 9.41875 -5.1875 10.375 C-3.2075 10.375 -1.2275 10.375 0.8125 10.375 C2.04646041 8.6607711 2.04646041 8.6607711 2.8125 6.375 C2.02547649 3.6556707 2.02547649 3.6556707 0.8125 1.375 C-1.60369823 1.12469023 -1.60369823 1.12469023 -4.1875 1.375 Z " fill="#0D0D0D" transform="translate(402.1875,61.625)"/>
<path d="M0 0 C0.66 0.33 1.32 0.66 2 1 C1.360625 1.4125 0.72125 1.825 0.0625 2.25 C-2.10865941 3.82657332 -2.10865941 3.82657332 -2.875 6.0625 C-2.91625 6.701875 -2.9575 7.34125 -3 8 C-2.34 8.66 -1.68 9.32 -1 10 C1.60280568 9.67958603 1.60280568 9.67958603 4 9 C5.2077558 5.37673261 4.54311128 4.35853631 3 1 C6.875 2.875 6.875 2.875 8 4 C8.375 6.3125 8.375 6.3125 8 9 C5.8125 11.375 5.8125 11.375 3 13 C0.07261258 12.9303003 -1.41595862 12.40278716 -3.8125 10.75 C-5 9 -5 9 -5.5 6.5625 C-4.79971604 2.97354471 -2.94700354 1.98922739 0 0 Z " fill="#0D0D0D" transform="translate(414,61)"/>
<path d="M0 0 C2.8125 1.375 2.8125 1.375 4.8125 3.375 C5.25 5.75 5.25 5.75 4.8125 8.375 C2.625 10.75 2.625 10.75 -0.1875 12.375 C-3.11488742 12.3053003 -4.60345862 11.77778716 -7 10.125 C-8.1875 8.375 -8.1875 8.375 -8.6875 5.9375 C-8.1875 3.375 -8.1875 3.375 -6.0625 0.9375 C-3.1875 -0.625 -3.1875 -0.625 0 0 Z M-6.1875 3.375 C-6.60416667 5.875 -6.60416667 5.875 -6.1875 8.375 C-4.35834359 10.61345015 -4.35834359 10.61345015 -1.6875 10.6875 C-0.8625 10.584375 -0.0375 10.48125 0.8125 10.375 C3.14641203 7.59385944 3.14641203 7.59385944 2.4375 4.6875 C2.23125 3.924375 2.025 3.16125 1.8125 2.375 C-2.36560069 1.18568813 -2.36560069 1.18568813 -6.1875 3.375 Z " fill="#0A0A0A" transform="translate(462.1875,61.625)"/>
<path d="M0 0 C2.8125 1.375 2.8125 1.375 4.8125 3.375 C5.25 5.75 5.25 5.75 4.8125 8.375 C2.625 10.75 2.625 10.75 -0.1875 12.375 C-3.11488742 12.3053003 -4.60345862 11.77778716 -7 10.125 C-8.1875 8.375 -8.1875 8.375 -8.6875 5.9375 C-8.1875 3.375 -8.1875 3.375 -6.0625 0.9375 C-3.1875 -0.625 -3.1875 -0.625 0 0 Z M-4.1875 1.375 C-6.3394437 4.60291555 -6.38836443 5.65900809 -6.1875 9.375 C-2.09207219 10.51703952 -2.09207219 10.51703952 1.75 9.25 C3.06322311 7.35021123 3.06322311 7.35021123 2.5625 4.75 C2.03504355 2.4437593 2.03504355 2.4437593 0.8125 1.375 C-1.64542029 1.04156449 -1.64542029 1.04156449 -4.1875 1.375 Z " fill="#0A0A0A" transform="translate(222.1875,61.625)"/>
<path d="M0 0 C1.485 0.99 1.485 0.99 3 2 C3.33 1.34 3.66 0.68 4 0 C5.32 0.33 6.64 0.66 8 1 C7.6875 3.875 7.6875 3.875 7 7 C6.01 7.66 5.02 8.32 4 9 C2.35 8.01 0.7 7.02 -1 6 C-0.67 4.02 -0.34 2.04 0 0 Z " fill="#1E1E1E" transform="translate(277,49)"/>
<path d="M0 0 C2.8125 1.375 2.8125 1.375 4.8125 3.375 C5.25 5.75 5.25 5.75 4.8125 8.375 C2.625 10.75 2.625 10.75 -0.1875 12.375 C-3.11488742 12.3053003 -4.60345862 11.77778716 -7 10.125 C-8.1875 8.375 -8.1875 8.375 -8.6875 5.9375 C-8.1875 3.375 -8.1875 3.375 -6.0625 0.9375 C-3.1875 -0.625 -3.1875 -0.625 0 0 Z M-6.1875 3.375 C-6.52083333 5.875 -6.52083333 5.875 -6.1875 8.375 C-5.5275 9.035 -4.8675 9.695 -4.1875 10.375 C-1.08823181 10.05301034 -1.08823181 10.05301034 1.8125 9.375 C2.49051034 6.47426819 2.49051034 6.47426819 2.8125 3.375 C0.98546773 1.1258092 0.98546773 1.1258092 -1.6875 1.125 C-4.36046773 1.1258092 -4.36046773 1.1258092 -6.1875 3.375 Z " fill="#090909" transform="translate(162.1875,46.625)"/>
<path d="M0 0 C2.8125 1.375 2.8125 1.375 4.8125 3.375 C5.125 5.8125 5.125 5.8125 4.8125 8.375 C3.3125 10.1875 3.3125 10.1875 1.8125 11.375 C1.1525 11.045 0.4925 10.715 -0.1875 10.375 C0.4725 8.725 1.1325 7.075 1.8125 5.375 C0.58440909 3.72944301 0.58440909 3.72944301 -1.1875 2.375 C-3.35049211 2.60257731 -3.35049211 2.60257731 -5.1875 3.375 C-5.38836443 7.09099191 -5.3394437 8.14708445 -3.1875 11.375 C-7.0625 9.5 -7.0625 9.5 -8.1875 8.375 C-8.5625 6.0625 -8.5625 6.0625 -8.1875 3.375 C-5.37153936 0.14492751 -4.29424586 -0.84200899 0 0 Z " fill="#0C0C0C" transform="translate(402.1875,46.625)"/>
<path d="M0 0 C2.8125 1.375 2.8125 1.375 4.8125 3.375 C5.25 5.75 5.25 5.75 4.8125 8.375 C2.625 10.75 2.625 10.75 -0.1875 12.375 C-3.11488742 12.3053003 -4.60345862 11.77778716 -7 10.125 C-8.1875 8.375 -8.1875 8.375 -8.6875 5.9375 C-8.1875 3.375 -8.1875 3.375 -6.0625 0.9375 C-3.1875 -0.625 -3.1875 -0.625 0 0 Z M-4.1875 1.375 C-6.47478734 3.21383881 -6.47478734 3.21383881 -6.3125 6 C-6.27125 6.78375 -6.23 7.5675 -6.1875 8.375 C-3.09940305 10.13962683 -1.95437864 10.375 1.8125 10.375 C2.57966851 7.52421909 2.57966851 7.52421909 2.8125 4.375 C1.74904948 2.39470318 1.74904948 2.39470318 -0.1875 1.375 C-1.5075 1.375 -2.8275 1.375 -4.1875 1.375 Z " fill="#090909" transform="translate(477.1875,31.625)"/>
<path d="M0 0 C2.8125 1.375 2.8125 1.375 4.8125 3.375 C4.6875 6.875 4.6875 6.875 3.8125 10.375 C1.48514764 12.36987345 0.28725877 12.40973845 -2.75 12.1875 C-5.43688496 11.29187168 -6.59914878 10.71572811 -8.1875 8.375 C-8.6875 5.9375 -8.6875 5.9375 -8.1875 3.375 C-5.37153936 0.14492751 -4.29424586 -0.84200899 0 0 Z M-6.1875 3.375 C-6.60416667 5.875 -6.60416667 5.875 -6.1875 8.375 C-5.5275 9.035 -4.8675 9.695 -4.1875 10.375 C-0.62157381 10.21082968 -0.62157381 10.21082968 2.8125 9.375 C4.09740483 7.34387131 4.09740483 7.34387131 3.1875 4.8125 C2.03398636 2.16333447 2.03398636 2.16333447 -0.625 1.4375 C-3.43278606 1.12337398 -3.43278606 1.12337398 -6.1875 3.375 Z " fill="#080808" transform="translate(327.1875,76.625)"/>
<path d="M0 0 C2.8125 1.375 2.8125 1.375 4.8125 3.375 C5.25 5.75 5.25 5.75 4.8125 8.375 C2.625 10.75 2.625 10.75 -0.1875 12.375 C-3.11488742 12.3053003 -4.60345862 11.77778716 -7 10.125 C-8.1875 8.375 -8.1875 8.375 -8.6875 5.9375 C-8.1875 3.375 -8.1875 3.375 -6.0625 0.9375 C-3.1875 -0.625 -3.1875 -0.625 0 0 Z M-6.1875 3.375 C-6.60416667 5.875 -6.60416667 5.875 -6.1875 8.375 C-4.36046773 10.6241908 -4.36046773 10.6241908 -1.6875 10.625 C0.98546773 10.6241908 0.98546773 10.6241908 2.8125 8.375 C2.97931109 5.29152174 2.97931109 5.29152174 2.8125 2.375 C-1.92826549 1.18801999 -1.92826549 1.18801999 -6.1875 3.375 Z " fill="#090909" transform="translate(252.1875,76.625)"/>
<path d="M0 0 C2.8125 1.375 2.8125 1.375 4.8125 3.375 C5.25 5.75 5.25 5.75 4.8125 8.375 C2.625 10.75 2.625 10.75 -0.1875 12.375 C-3.11488742 12.3053003 -4.60345862 11.77778716 -7 10.125 C-8.1875 8.375 -8.1875 8.375 -8.6875 5.9375 C-8.1875 3.375 -8.1875 3.375 -6.0625 0.9375 C-3.1875 -0.625 -3.1875 -0.625 0 0 Z M-4.1875 1.375 C-5.1775 3.355 -6.1675 5.335 -7.1875 7.375 C-6.06640434 8.99993901 -6.06640434 8.99993901 -4.1875 10.375 C-1.06200983 10.62548636 -1.06200983 10.62548636 1.8125 10.375 C2.1425 8.065 2.4725 5.755 2.8125 3.375 C-0.14127498 1.00519987 -0.14127498 1.00519987 -4.1875 1.375 Z " fill="#0C0C0C" transform="translate(297.1875,61.625)"/>
<path d="M0 0 C2.8125 1.375 2.8125 1.375 4.8125 3.375 C4.6875 6.875 4.6875 6.875 3.8125 10.375 C1.48514764 12.36987345 0.28725877 12.40973845 -2.75 12.1875 C-5.43688496 11.29187168 -6.59914878 10.71572811 -8.1875 8.375 C-8.6875 5.9375 -8.6875 5.9375 -8.1875 3.375 C-5.37153936 0.14492751 -4.29424586 -0.84200899 0 0 Z M-6.1875 3.375 C-6.60416667 5.875 -6.60416667 5.875 -6.1875 8.375 C-4.28994856 10.72473818 -4.28994856 10.72473818 -1.0625 10.5 C-0.11375 10.45875 0.835 10.4175 1.8125 10.375 C2.49743373 7.51721967 2.49743373 7.51721967 2.8125 4.375 C2.1525 3.385 1.4925 2.395 0.8125 1.375 C-3.23372502 1.00519987 -3.23372502 1.00519987 -6.1875 3.375 Z " fill="#090909" transform="translate(207.1875,46.625)"/>
<path d="M0 0 C2.8125 1.375 2.8125 1.375 4.8125 3.375 C5.25 5.75 5.25 5.75 4.8125 8.375 C2.625 10.75 2.625 10.75 -0.1875 12.375 C-3.11488742 12.3053003 -4.60345862 11.77778716 -7 10.125 C-8.1875 8.375 -8.1875 8.375 -8.6875 5.9375 C-8.1875 3.375 -8.1875 3.375 -6.0625 0.9375 C-3.1875 -0.625 -3.1875 -0.625 0 0 Z M-4.1875 1.375 C-6.52141203 4.15614056 -6.52141203 4.15614056 -5.8125 7.0625 C-5.60625 7.825625 -5.4 8.58875 -5.1875 9.375 C-2.83382287 10.0628236 -2.83382287 10.0628236 -0.1875 10.375 C0.8025 9.715 1.7925 9.055 2.8125 8.375 C3.22916667 5.875 3.22916667 5.875 2.8125 3.375 C0.98334359 1.13654985 0.98334359 1.13654985 -1.6875 1.0625 C-2.5125 1.165625 -3.3375 1.26875 -4.1875 1.375 Z " fill="#0A0A0A" transform="translate(132.1875,31.625)"/>
<path d="M0 0 C2.8125 1.375 2.8125 1.375 4.8125 3.375 C5.25 5.75 5.25 5.75 4.8125 8.375 C2.625 10.75 2.625 10.75 -0.1875 12.375 C-3.11488742 12.3053003 -4.60345862 11.77778716 -7 10.125 C-8.1875 8.375 -8.1875 8.375 -8.6875 5.9375 C-8.1875 3.375 -8.1875 3.375 -6.0625 0.9375 C-3.1875 -0.625 -3.1875 -0.625 0 0 Z M-5.5 3.3125 C-6.056875 3.993125 -6.61375 4.67375 -7.1875 5.375 C-6.0499438 7.96641286 -6.0499438 7.96641286 -4.1875 10.375 C-1.6875 11.20833333 -1.6875 11.20833333 0.8125 10.375 C2.6749438 7.96641286 2.6749438 7.96641286 3.8125 5.375 C2.13539761 2.24155546 2.13539761 2.24155546 -0.5625 1.4375 C-3.35472305 1.08198083 -3.35472305 1.08198083 -5.5 3.3125 Z " fill="#0C0C0C" transform="translate(522.1875,31.625)"/>
<path d="M0 0 C2.8125 1.375 2.8125 1.375 4.8125 3.375 C5.25 5.75 5.25 5.75 4.8125 8.375 C2.625 10.75 2.625 10.75 -0.1875 12.375 C-3.11488742 12.3053003 -4.60345862 11.77778716 -7 10.125 C-8.1875 8.375 -8.1875 8.375 -8.6875 5.9375 C-8.1875 3.375 -8.1875 3.375 -6.0625 0.9375 C-3.1875 -0.625 -3.1875 -0.625 0 0 Z M-4.1875 1.375 C-5.42146041 3.0892289 -5.42146041 3.0892289 -6.1875 5.375 C-5.40047649 8.0943293 -5.40047649 8.0943293 -4.1875 10.375 C-1.77104218 10.54187448 -1.77104218 10.54187448 0.8125 10.375 C3.0616908 8.54796773 3.0616908 8.54796773 3.0625 5.875 C3.0616908 3.20203227 3.0616908 3.20203227 0.8125 1.375 C-1.77104218 1.20812552 -1.77104218 1.20812552 -4.1875 1.375 Z " fill="#0B0B0B" transform="translate(252.1875,31.625)"/>
<path d="M0 0 C2.8125 1.375 2.8125 1.375 4.8125 3.375 C5.25 5.75 5.25 5.75 4.8125 8.375 C2.625 10.75 2.625 10.75 -0.1875 12.375 C-3.11488742 12.3053003 -4.60345862 11.77778716 -7 10.125 C-8.1875 8.375 -8.1875 8.375 -8.6875 5.9375 C-8.1875 3.375 -8.1875 3.375 -6.0625 0.9375 C-3.1875 -0.625 -3.1875 -0.625 0 0 Z M-4.1875 1.375 C-5.61694945 3.72938733 -6.27411261 4.85532433 -5.8125 7.625 C-5.60625 8.2025 -5.4 8.78 -5.1875 9.375 C-2.2175 9.87 -2.2175 9.87 0.8125 10.375 C2.4608633 8.62255753 2.4608633 8.62255753 3.8125 6.375 C3.59532648 4.16699472 3.59532648 4.16699472 2.8125 2.375 C0.5025 2.045 -1.8075 1.715 -4.1875 1.375 Z " fill="#0A0A0A" transform="translate(297.1875,91.625)"/>
<path d="M0 0 C3 1.1875 3 1.1875 5 3.1875 C5.4375 5.5625 5.4375 5.5625 5 8.1875 C2.8125 10.5625 2.8125 10.5625 0 12.1875 C-2.97561453 12.11665204 -4.45004191 11.57247066 -6.875 9.875 C-8 8.1875 -8 8.1875 -7.6875 6 C-7.3471875 5.1028125 -7.3471875 5.1028125 -7 4.1875 C-6.67 5.1775 -6.34 6.1675 -6 7.1875 C-3.96944742 8.20277629 -2.22729045 8.76988304 0 9.1875 C0.66 8.8575 1.32 8.5275 2 8.1875 C2 6.5375 2 4.8875 2 3.1875 C-1.28696233 2.38796862 -2.71023192 2.09091064 -6 3.1875 C-5.67 2.1975 -5.34 1.2075 -5 0.1875 C-3 -0.8125 -3 -0.8125 0 0 Z " fill="#0D0D0D" transform="translate(42,76.8125)"/>
<path d="M0 0 C2.8125 1.375 2.8125 1.375 4.8125 3.375 C5.25 5.75 5.25 5.75 4.8125 8.375 C2.625 10.75 2.625 10.75 -0.1875 12.375 C-3.11488742 12.3053003 -4.60345862 11.77778716 -7 10.125 C-8.1875 8.375 -8.1875 8.375 -8.6875 5.9375 C-8.1875 3.375 -8.1875 3.375 -6.0625 0.9375 C-3.1875 -0.625 -3.1875 -0.625 0 0 Z M-4.1875 1.375 C-6.4366908 3.20203227 -6.4366908 3.20203227 -6.4375 5.875 C-6.4366908 8.54796773 -6.4366908 8.54796773 -4.1875 10.375 C-0.59070934 10.05173447 -0.59070934 10.05173447 2.8125 9.375 C3.1425 8.385 3.4725 7.395 3.8125 6.375 C2.20913957 3.59987879 2.20913957 3.59987879 -0.1875 1.375 C-1.5075 1.375 -2.8275 1.375 -4.1875 1.375 Z " fill="#0A0A0A" transform="translate(237.1875,76.625)"/>
<path d="M0 0 C2.8125 1.375 2.8125 1.375 4.8125 3.375 C4.6875 6.875 4.6875 6.875 3.8125 10.375 C1.48514764 12.36987345 0.28725877 12.40973845 -2.75 12.1875 C-5.43688496 11.29187168 -6.59914878 10.71572811 -8.1875 8.375 C-8.6875 5.9375 -8.6875 5.9375 -8.1875 3.375 C-5.37153936 0.14492751 -4.29424586 -0.84200899 0 0 Z M-4.1875 1.375 C-4.8475 2.035 -5.5075 2.695 -6.1875 3.375 C-5.99992938 7.20064665 -5.99992938 7.20064665 -4.1875 10.375 C-1.84805264 10.08769945 0.4864143 9.75563221 2.8125 9.375 C2.8125 7.065 2.8125 4.755 2.8125 2.375 C-0.59070934 1.69826553 -0.59070934 1.69826553 -4.1875 1.375 Z " fill="#080808" transform="translate(492.1875,61.625)"/>
<path d="M0 0 C0 0.66 0 1.32 0 2 C-1.98 2.99 -1.98 2.99 -4 4 C-4.042721 5.66611905 -4.04063832 7.33382885 -4 9 C-2.93354885 10.29633621 -2.93354885 10.29633621 -0.4375 10.0625 C0.366875 10.041875 1.17125 10.02125 2 10 C2.68493373 7.14221967 2.68493373 7.14221967 3 4 C2.34 3.01 1.68 2.02 1 1 C2.32 1.33 3.64 1.66 5 2 C5.8125 5.25 5.8125 5.25 6 9 C3.875 11.5 3.875 11.5 1 13 C-1.92738742 12.9303003 -3.41595862 12.40278716 -5.8125 10.75 C-7 9 -7 9 -7.5 6.5625 C-7 4 -7 4 -4.625 1.6875 C-2 0 -2 0 0 0 Z " fill="#0A0A0A" transform="translate(326,61)"/>
<path d="M0 0 C2.8125 1.375 2.8125 1.375 4.8125 3.375 C5.25 5.75 5.25 5.75 4.8125 8.375 C2.625 10.75 2.625 10.75 -0.1875 12.375 C-3.11488742 12.3053003 -4.60345862 11.77778716 -7 10.125 C-8.1875 8.375 -8.1875 8.375 -8.6875 5.9375 C-8.1875 3.375 -8.1875 3.375 -6.0625 0.9375 C-3.1875 -0.625 -3.1875 -0.625 0 0 Z M-4.1875 1.375 C-5.87380119 4.88533129 -5.87380119 4.88533129 -5.8125 8.6875 C-5.60625 9.244375 -5.4 9.80125 -5.1875 10.375 C-2.31385209 10.79246608 -2.31385209 10.79246608 0.8125 10.375 C2.7479148 7.98443058 2.7479148 7.98443058 3.8125 5.375 C2.65565671 3.2754467 2.65565671 3.2754467 0.8125 1.375 C-1.81375139 1.04074265 -1.81375139 1.04074265 -4.1875 1.375 Z " fill="#090909" transform="translate(162.1875,61.625)"/>
<path d="M0 0 C2.8125 1.375 2.8125 1.375 4.8125 3.375 C5.25 5.75 5.25 5.75 4.8125 8.375 C2.625 10.75 2.625 10.75 -0.1875 12.375 C-3.11488742 12.3053003 -4.60345862 11.77778716 -7 10.125 C-8.1875 8.375 -8.1875 8.375 -8.6875 5.9375 C-8.1875 3.375 -8.1875 3.375 -6.0625 0.9375 C-3.1875 -0.625 -3.1875 -0.625 0 0 Z M-6.1875 3.375 C-6.52083333 5.875 -6.52083333 5.875 -6.1875 8.375 C-4.36046773 10.6241908 -4.36046773 10.6241908 -1.6875 10.625 C0.98546773 10.6241908 0.98546773 10.6241908 2.8125 8.375 C2.48923447 4.77820934 2.48923447 4.77820934 1.8125 1.375 C-2.68054582 0.94996554 -2.68054582 0.94996554 -6.1875 3.375 Z " fill="#0B0B0B" transform="translate(297.1875,46.625)"/>
<path d="M0 0 C2.8125 1.375 2.8125 1.375 4.8125 3.375 C5.25 5.75 5.25 5.75 4.8125 8.375 C2.625 10.75 2.625 10.75 -0.1875 12.375 C-3.11488742 12.3053003 -4.60345862 11.77778716 -7 10.125 C-8.1875 8.375 -8.1875 8.375 -8.6875 5.9375 C-8.1875 3.375 -8.1875 3.375 -6.0625 0.9375 C-3.1875 -0.625 -3.1875 -0.625 0 0 Z M-4.1875 1.375 C-6.4366908 3.20203227 -6.4366908 3.20203227 -6.4375 5.875 C-6.4366908 8.54796773 -6.4366908 8.54796773 -4.1875 10.375 C-1.14111173 10.45075878 -1.14111173 10.45075878 1.8125 9.375 C3.26541273 6.91244315 3.26541273 6.91244315 3.8125 4.375 C0.75132432 1.75113513 0.08076873 1.375 -4.1875 1.375 Z " fill="#0A0A0A" transform="translate(147.1875,46.625)"/>
<path d="M0 0 C0.99 0.66 1.98 1.32 3 2 C2.42655063 4.86724686 2.1385485 5.8614515 0 8 C-2.5 8.25 -2.5 8.25 -5 8 C-7 6 -7 6 -7.125 3.375 C-7.08375 2.59125 -7.0425 1.8075 -7 1 C-4.03 1.495 -4.03 1.495 -1 2 C-0.67 1.34 -0.34 0.68 0 0 Z " fill="#1D1D1D" transform="translate(463,109)"/>
<path d="M0 0 C2.8125 1.375 2.8125 1.375 4.8125 3.375 C5.25 5.75 5.25 5.75 4.8125 8.375 C2.625 10.75 2.625 10.75 -0.1875 12.375 C-3.11488742 12.3053003 -4.60345862 11.77778716 -7 10.125 C-8.1875 8.375 -8.1875 8.375 -8.6875 5.9375 C-8.1875 3.375 -8.1875 3.375 -6.0625 0.9375 C-3.1875 -0.625 -3.1875 -0.625 0 0 Z M-4.1875 1.375 C-6.52141203 4.15614056 -6.52141203 4.15614056 -5.8125 7.0625 C-5.60625 7.825625 -5.4 8.58875 -5.1875 9.375 C-2.2175 9.87 -2.2175 9.87 0.8125 10.375 C2.4608633 8.62255753 2.4608633 8.62255753 3.8125 6.375 C3.59532648 4.16699472 3.59532648 4.16699472 2.8125 2.375 C0.5025 2.045 -1.8075 1.715 -4.1875 1.375 Z " fill="#0B0B0B" transform="translate(417.1875,91.625)"/>
<path d="M0 0 C5.75 1.75 5.75 1.75 8 4 C8.4375 6.375 8.4375 6.375 8 9 C5.8125 11.375 5.8125 11.375 3 13 C0.07261258 12.9303003 -1.41595862 12.40278716 -3.8125 10.75 C-5.39364795 8.41988723 -5.22337696 6.75498245 -5 4 C-4.34 3.67 -3.68 3.34 -3 3 C-2.34 5.31 -1.68 7.62 -1 10 C0.65 10 2.3 10 4 10 C4.74957157 6.52852158 4.74957157 6.52852158 5 3 C2.69 2.67 0.38 2.34 -2 2 C-1.34 1.34 -0.68 0.68 0 0 Z " fill="#080808" transform="translate(339,76)"/>
<path d="M0 0 C2.8125 1.375 2.8125 1.375 4.8125 3.375 C5.25 5.75 5.25 5.75 4.8125 8.375 C2.625 10.75 2.625 10.75 -0.1875 12.375 C-3.11488742 12.3053003 -4.60345862 11.77778716 -7 10.125 C-8.1875 8.375 -8.1875 8.375 -8.6875 5.9375 C-8.1875 3.375 -8.1875 3.375 -6.0625 0.9375 C-3.1875 -0.625 -3.1875 -0.625 0 0 Z M-4.1875 1.375 C-5.6725 4.84 -5.6725 4.84 -7.1875 8.375 C-3.96376323 10.52415785 -2.92046326 10.75786803 0.8125 10.375 C3.0616908 8.54796773 3.0616908 8.54796773 3.0625 5.875 C3.0616908 3.20203227 3.0616908 3.20203227 0.8125 1.375 C-1.77104218 1.20812552 -1.77104218 1.20812552 -4.1875 1.375 Z " fill="#090909" transform="translate(102.1875,76.625)"/>
<path d="M0 0 C2.8125 1.375 2.8125 1.375 4.8125 3.375 C5.25 5.75 5.25 5.75 4.8125 8.375 C2.625 10.75 2.625 10.75 -0.1875 12.375 C-3.11488742 12.3053003 -4.60345862 11.77778716 -7 10.125 C-8.1875 8.375 -8.1875 8.375 -8.6875 5.9375 C-8.1875 3.375 -8.1875 3.375 -6.0625 0.9375 C-3.1875 -0.625 -3.1875 -0.625 0 0 Z M-4.1875 1.375 C-5.6725 3.85 -5.6725 3.85 -7.1875 6.375 C-6.1975 7.695 -5.2075 9.015 -4.1875 10.375 C-0.81287285 9.82776317 0.89485 9.3201 3.8125 7.375 C3.26541273 4.83755685 3.26541273 4.83755685 1.8125 2.375 C-1.24022465 1.47669161 -1.24022465 1.47669161 -4.1875 1.375 Z " fill="#0A0A0A" transform="translate(147.1875,61.625)"/>
<path d="M0 0 C2.8125 1.375 2.8125 1.375 4.8125 3.375 C5.25 5.75 5.25 5.75 4.8125 8.375 C2.625 10.75 2.625 10.75 -0.1875 12.375 C-3.11488742 12.3053003 -4.60345862 11.77778716 -7 10.125 C-8.1875 8.375 -8.1875 8.375 -8.6875 5.9375 C-8.1875 3.375 -8.1875 3.375 -6.0625 0.9375 C-3.1875 -0.625 -3.1875 -0.625 0 0 Z M-6.1875 3.375 C-5.86423447 6.97179066 -5.86423447 6.97179066 -5.1875 10.375 C-2.27097826 10.54181109 -2.27097826 10.54181109 0.8125 10.375 C3.0616908 8.54796773 3.0616908 8.54796773 3.0625 5.875 C3.0616908 3.20203227 3.0616908 3.20203227 0.8125 1.375 C-3.1549509 0.94030472 -3.1549509 0.94030472 -6.1875 3.375 Z " fill="#080808" transform="translate(252.1875,61.625)"/>
<path d="M0 0 C2.8125 1.375 2.8125 1.375 4.8125 3.375 C5.25 5.75 5.25 5.75 4.8125 8.375 C2.625 10.75 2.625 10.75 -0.1875 12.375 C-3.11488742 12.3053003 -4.60345862 11.77778716 -7 10.125 C-8.1875 8.375 -8.1875 8.375 -8.6875 5.9375 C-8.1875 3.375 -8.1875 3.375 -6.0625 0.9375 C-3.1875 -0.625 -3.1875 -0.625 0 0 Z M-5.5 3.3125 C-6.056875 3.993125 -6.61375 4.67375 -7.1875 5.375 C-6.0499438 7.96641286 -6.0499438 7.96641286 -4.1875 10.375 C-1.6875 11.125 -1.6875 11.125 0.8125 10.375 C2.65565671 8.4745533 2.65565671 8.4745533 3.8125 6.375 C3.17270151 4.34258273 3.17270151 4.34258273 1.8125 2.375 C-1.63750519 0.92236624 -2.58401713 0.86937921 -5.5 3.3125 Z " fill="#0D0D0D" transform="translate(72.1875,16.625)"/>
<path d="M0 0 C2.8125 1.375 2.8125 1.375 4.8125 3.375 C5.25 5.75 5.25 5.75 4.8125 8.375 C2.625 10.75 2.625 10.75 -0.1875 12.375 C-3.11488742 12.3053003 -4.60345862 11.77778716 -7 10.125 C-8.1875 8.375 -8.1875 8.375 -8.6875 5.9375 C-8.1875 3.375 -8.1875 3.375 -6.0625 0.9375 C-3.1875 -0.625 -3.1875 -0.625 0 0 Z M-6.1875 2.375 C-7.11216753 4.7477086 -7.11216753 4.7477086 -7.1875 7.375 C-6.16779682 9.31154948 -6.16779682 9.31154948 -4.1875 10.375 C-1.64519153 10.79179297 -1.64519153 10.79179297 0.8125 10.375 C1.4725 9.715 2.1325 9.055 2.8125 8.375 C2.49051034 5.27573181 2.49051034 5.27573181 1.8125 2.375 C-2.28973585 1.35959888 -2.28973585 1.35959888 -6.1875 2.375 Z " fill="#090909" transform="translate(507.1875,91.625)"/>
<path d="M0 0 C2.8125 1.375 2.8125 1.375 4.8125 3.375 C5.25 5.75 5.25 5.75 4.8125 8.375 C2.625 10.75 2.625 10.75 -0.1875 12.375 C-3.11488742 12.3053003 -4.60345862 11.77778716 -7 10.125 C-8.1875 8.375 -8.1875 8.375 -8.6875 5.9375 C-8.1875 3.375 -8.1875 3.375 -6.0625 0.9375 C-3.1875 -0.625 -3.1875 -0.625 0 0 Z M-4.1875 1.375 C-6.45396351 4.13056583 -6.45396351 4.13056583 -6.0625 6.9375 C-5.41398849 9.52675712 -5.41398849 9.52675712 -3.125 10.6875 C-2.485625 10.914375 -1.84625 11.14125 -1.1875 11.375 C0.4625 10.055 2.1125 8.735 3.8125 7.375 C3.26541273 4.83755685 3.26541273 4.83755685 1.8125 2.375 C-1.24022465 1.47669161 -1.24022465 1.47669161 -4.1875 1.375 Z " fill="#080808" transform="translate(342.1875,91.625)"/>
<path d="M0 0 C2.8125 1.375 2.8125 1.375 4.8125 3.375 C5.25 5.75 5.25 5.75 4.8125 8.375 C2.625 10.75 2.625 10.75 -0.1875 12.375 C-2.9375 12.25 -2.9375 12.25 -5.1875 11.375 C-5.5175 10.715 -5.8475 10.055 -6.1875 9.375 C-5.23875 9.395625 -4.29 9.41625 -3.3125 9.4375 C-0.28083717 9.60051826 -0.28083717 9.60051826 1.8125 8.375 C1.855221 6.70888095 1.85313832 5.04117115 1.8125 3.375 C0.74604885 2.07866379 0.74604885 2.07866379 -1.75 2.3125 C-2.554375 2.333125 -3.35875 2.35375 -4.1875 2.375 C-5.1775 4.355 -6.1675 6.335 -7.1875 8.375 C-7.5175 8.375 -7.8475 8.375 -8.1875 8.375 C-8.5 6.125 -8.5 6.125 -8.1875 3.375 C-5.37153936 0.14492751 -4.29424586 -0.84200899 0 0 Z " fill="#0C0C0C" transform="translate(402.1875,76.625)"/>
<path d="M0 0 C2.8125 1.375 2.8125 1.375 4.8125 3.375 C5.25 5.75 5.25 5.75 4.8125 8.375 C2.625 10.75 2.625 10.75 -0.1875 12.375 C-3.11488742 12.3053003 -4.60345862 11.77778716 -7 10.125 C-8.1875 8.375 -8.1875 8.375 -8.6875 5.9375 C-8.1875 3.375 -8.1875 3.375 -6.0625 0.9375 C-3.1875 -0.625 -3.1875 -0.625 0 0 Z M-6.0625 2.8125 C-6.43375 3.328125 -6.805 3.84375 -7.1875 4.375 C-6.09965032 7.62483135 -6.09965032 7.62483135 -4.1875 10.375 C-1.77212162 10.79217279 -1.77212162 10.79217279 0.8125 10.375 C2.65565671 8.4745533 2.65565671 8.4745533 3.8125 6.375 C3.24887698 4.32663118 3.24887698 4.32663118 1.8125 2.375 C-2.35087988 0.97881736 -2.35087988 0.97881736 -6.0625 2.8125 Z " fill="#0A0A0A" transform="translate(207.1875,91.625)"/>
<path d="M0 0 C5.75 1.75 5.75 1.75 8 4 C8.4375 6.375 8.4375 6.375 8 9 C5.8125 11.375 5.8125 11.375 3 13 C0.07261258 12.9303003 -1.41595862 12.40278716 -3.8125 10.75 C-5.39364795 8.41988723 -5.22337696 6.75498245 -5 4 C-4.34 3.67 -3.68 3.34 -3 3 C-2.34 5.31 -1.68 7.62 -1 10 C0.65 9.67 2.3 9.34 4 9 C5.01111093 5.95086772 5.01111093 5.95086772 4 3 C1.98330173 1.86649466 1.98330173 1.86649466 0 1 C0 0.67 0 0.34 0 0 Z " fill="#0A0A0A" transform="translate(399,91)"/>
<path d="M0 0 C0.886875 0.4125 1.77375 0.825 2.6875 1.25 C0.08652318 2.55048841 -2.45205062 2.81471422 -5.3125 3.25 C-5.6425 4.57 -5.9725 5.89 -6.3125 7.25 C-4.33503397 7.98080266 -2.33177511 8.64421747 -0.3125 9.25 C2.4714183 7.85804085 2.66648997 6.09424221 3.6875 3.25 C4.0175 3.25 4.3475 3.25 4.6875 3.25 C5 5.5 5 5.5 4.6875 8.25 C2.5 10.625 2.5 10.625 -0.3125 12.25 C-3.23988742 12.1803003 -4.72845862 11.65278716 -7.125 10 C-8.3125 8.25 -8.3125 8.25 -8.8125 5.8125 C-8.3125 3.25 -8.3125 3.25 -6.1875 0.8125 C-3.3125 -0.75 -3.3125 -0.75 0 0 Z " fill="#0B0B0B" transform="translate(57.3125,16.75)"/>
<path d="M0 0 C0.33 1.65 0.66 3.3 1 5 C-2.06117568 7.62386487 -2.73173127 8 -7 8 C-7.6875 5.6875 -7.6875 5.6875 -8 3 C-5.90994325 -0.36731366 -3.75103888 -0.30413829 0 0 Z " fill="#1B1B1B" transform="translate(376,94)"/>
<path d="M0 0 C0.33 1.32 0.66 2.64 1 4 C0.01 3.67 -0.98 3.34 -2 3 C-1.34 3.66 -0.68 4.32 0 5 C0.66 5.66 1.32 6.32 2 7 C1.67 7.99 1.34 8.98 1 10 C-1.97 9.505 -1.97 9.505 -5 9 C-5.33 7.02 -5.66 5.04 -6 3 C-2.25 0 -2.25 0 0 0 Z " fill="#1E1E1E" transform="translate(492,92)"/>
<path d="M0 0 C1.0828125 0.37125 1.0828125 0.37125 2.1875 0.75 C1.548125 0.853125 0.90875 0.95625 0.25 1.0625 C-0.7709375 1.4028125 -0.7709375 1.4028125 -1.8125 1.75 C-2.1425 2.74 -2.4725 3.73 -2.8125 4.75 C-3.8025 5.245 -3.8025 5.245 -4.8125 5.75 C-4.8125 6.74 -4.8125 7.73 -4.8125 8.75 C-3.389375 8.9665625 -3.389375 8.9665625 -1.9375 9.1875 C1.1875 9.75 1.1875 9.75 3.1875 10.75 C0.1875 12.75 0.1875 12.75 -2.3125 12.5625 C-5.04395737 11.67477635 -6.20370004 11.12086309 -7.8125 8.75 C-8.3125 6.3125 -8.3125 6.3125 -7.8125 3.75 C-5.17968173 0.89151159 -3.95233493 -0.35131866 0 0 Z " fill="#0A0A0A" transform="translate(26.8125,31.25)"/>
<path d="M0 0 C0.99 0.33 1.98 0.66 3 1 C2.01 1.495 2.01 1.495 1 2 C-0.30635274 4.30532837 -1.15857074 6.47571223 -2 9 C0.31 9.66 2.62 10.32 5 11 C4.34 11.66 3.68 12.32 3 13 C0.23615924 12.78739686 -1.52393621 12.32831986 -3.8125 10.75 C-5 9 -5 9 -5.5 6.5625 C-5 4 -5 4 -2.6875 1.625 C-1.800625 1.08875 -0.91375 0.5525 0 0 Z " fill="#0C0C0C" transform="translate(24,46)"/>
<path d="M0 0 C2.8125 1.375 2.8125 1.375 4.8125 3.375 C5.125 5.875 5.125 5.875 4.8125 8.375 C3.8225 9.035 2.8325 9.695 1.8125 10.375 C1.8125 8.065 1.8125 5.755 1.8125 3.375 C-0.4975 3.045 -2.8075 2.715 -5.1875 2.375 C-5.1875 5.015 -5.1875 7.655 -5.1875 10.375 C-8.1875 8.375 -8.1875 8.375 -8.6875 6 C-8.1875 3.375 -8.1875 3.375 -6.0625 0.9375 C-3.1875 -0.625 -3.1875 -0.625 0 0 Z " fill="#0B0B0B" transform="translate(402.1875,31.625)"/>
<path d="M0 0 C2.8125 1.375 2.8125 1.375 4.8125 3.375 C4.5625 6.4375 4.5625 6.4375 3.8125 9.375 C2.8225 9.87 2.8225 9.87 1.8125 10.375 C1.833125 9.42625 1.85375 8.4775 1.875 7.5 C2.03801826 4.46833717 2.03801826 4.46833717 0.8125 2.375 C-0.8375 2.375 -2.4875 2.375 -4.1875 2.375 C-4.331875 3.138125 -4.47625 3.90125 -4.625 4.6875 C-5.1875 7.375 -5.1875 7.375 -6.1875 10.375 C-8.1875 8.375 -8.1875 8.375 -8.625 6 C-8.1875 3.375 -8.1875 3.375 -6.0625 0.9375 C-3.1875 -0.625 -3.1875 -0.625 0 0 Z " fill="#0B0B0B" transform="translate(522.1875,61.625)"/>
<path d="M0 0 C2.8125 1.375 2.8125 1.375 4.8125 3.375 C5.125 5.875 5.125 5.875 4.8125 8.375 C3.8225 9.035 2.8325 9.695 1.8125 10.375 C1.833125 9.240625 1.85375 8.10625 1.875 6.9375 C2.22827477 3.55924326 2.22827477 3.55924326 0.8125 2.375 C-1.6875 2.20833333 -1.6875 2.20833333 -4.1875 2.375 C-5.60327477 3.55924326 -5.60327477 3.55924326 -5.25 6.9375 C-5.229375 8.071875 -5.20875 9.20625 -5.1875 10.375 C-8.1875 8.375 -8.1875 8.375 -8.6875 6 C-8.1875 3.375 -8.1875 3.375 -6.0625 0.9375 C-3.1875 -0.625 -3.1875 -0.625 0 0 Z " fill="#0B0B0B" transform="translate(282.1875,31.625)"/>
<path d="M0 0 C3.76687864 0 4.91190305 0.23537317 8 2 C7.125 5.875 7.125 5.875 6 7 C4.00041636 7.04080783 1.99954746 7.04254356 0 7 C0 4.69 0 2.38 0 0 Z " fill="#1F1F1F" transform="translate(517,50)"/>
<path d="M0 0 C0 0.99 0 1.98 0 3 C-0.66 3 -1.32 3 -2 3 C-1.67 4.98 -1.34 6.96 -1 9 C-3.86724686 8.42655063 -4.8614515 8.1385485 -7 6 C-4.84615385 0 -4.84615385 0 0 0 Z " fill="#1E1E1E" transform="translate(207,33)"/>
<path d="M0 0 C0.886875 0.4125 1.77375 0.825 2.6875 1.25 C1.759375 1.435625 1.759375 1.435625 0.8125 1.625 C-1.50370832 2.12197356 -1.50370832 2.12197356 -3.3125 4.25 C-4.3025 4.25 -5.2925 4.25 -6.3125 4.25 C-5.9825 6.23 -5.6525 8.21 -5.3125 10.25 C-8.3125 8.25 -8.3125 8.25 -8.8125 5.875 C-8.3125 3.25 -8.3125 3.25 -6.1875 0.8125 C-3.3125 -0.75 -3.3125 -0.75 0 0 Z " fill="#0F0F0F" transform="translate(12.3125,16.75)"/>
<path d="M0 0 C2.8125 1.375 2.8125 1.375 4.8125 3.375 C4.9375 6 4.9375 6 4.8125 8.375 C3.8225 8.87 3.8225 8.87 2.8125 9.375 C2.668125 8.59125 2.52375 7.8075 2.375 7 C1.93451075 4.41078982 1.93451075 4.41078982 0.8125 2.375 C-0.8375 2.375 -2.4875 2.375 -4.1875 2.375 C-5.1775 4.355 -6.1675 6.335 -7.1875 8.375 C-7.5175 8.375 -7.8475 8.375 -8.1875 8.375 C-8.5 6.125 -8.5 6.125 -8.1875 3.375 C-5.37153936 0.14492751 -4.29424586 -0.84200899 0 0 Z " fill="#0A0A0A" transform="translate(312.1875,61.625)"/>
<path d="M0 0 C-0.99 0.66 -1.98 1.32 -3 2 C-4.32 1.34 -5.64 0.68 -7 0 C-8.56272189 4.39253773 -8.56272189 4.39253773 -9 9 C-9.66 8.34 -10.32 7.68 -11 7 C-10.875 3.5 -10.875 3.5 -10 0 C-6.65782978 -3.09460206 -3.87980298 -1.58719213 0 0 Z " fill="#111111" transform="translate(375,18)"/>
<path d="M0 0 C0.66 0.33 1.32 0.66 2 1 C1.01 2.98 0.02 4.96 -1 7 C1.91765 8.9451 3.62537285 9.45276317 7 10 C6.34 10.66 5.68 11.32 5 12 C2.23615924 11.78739686 0.47606379 11.32831986 -1.8125 9.75 C-3.45364719 7.3314673 -3.42967368 5.86449123 -3 3 C-1.5 1.1875 -1.5 1.1875 0 0 Z " fill="#0A0A0A" transform="translate(277,92)"/>
<path d="M0 0 C0.886875 0.4125 1.77375 0.825 2.6875 1.25 C1.6975 1.745 1.6975 1.745 0.6875 2.25 C0.6875 2.91 0.6875 3.57 0.6875 4.25 C-1.64583333 4.25 -3.97916667 4.25 -6.3125 4.25 C-6.9725 5.57 -7.6325 6.89 -8.3125 8.25 C-8.625 6 -8.625 6 -8.3125 3.25 C-5.41421226 -0.07450653 -4.39741943 -0.99564213 0 0 Z " fill="#0C0C0C" transform="translate(477.3125,106.75)"/>
<path d="M0 0 C0.66 0.33 1.32 0.66 2 1 C2.3125 3.25 2.3125 3.25 2 6 C-0.1875 8.375 -0.1875 8.375 -3 10 C-5.6875 9.9375 -5.6875 9.9375 -8 9 C-8.66 8.01 -9.32 7.02 -10 6 C-7.36 6.33 -4.72 6.66 -2 7 C-1.34 4.69 -0.68 2.38 0 0 Z " fill="#0B0B0B" transform="translate(195,49)"/>
<path d="M0 0 C0.66 0.66 1.32 1.32 2 2 C1.625 4.125 1.625 4.125 1 6 C0.34 4.68 -0.32 3.36 -1 2 C-1.66 2.66 -2.32 3.32 -3 4 C-5.625 3.625 -5.625 3.625 -8 3 C-7.67 2.01 -7.34 1.02 -7 0 C-4.29393021 -1.35303489 -2.8671629 -0.7884698 0 0 Z " fill="#121212" transform="translate(465,108)"/>
<path d="M0 0 C0.33 0 0.66 0 1 0 C1.66 2.31 2.32 4.62 3 7 C3.763125 7 4.52625 7 5.3125 7 C7.20833333 7 9.10416667 7 11 7 C9.3125 8.5625 9.3125 8.5625 7 10 C4.14656236 9.86080792 2.53537114 9.36922147 0.1875 7.75 C-1.40975379 5.3961523 -1.29313806 3.78481156 -1 1 C-0.67 0.67 -0.34 0.34 0 0 Z " fill="#090909" transform="translate(155,94)"/>
<path d="M0 0 C3 2 3 2 3.5 4.375 C3 7 3 7 0.8125 9.375 C-2 11 -2 11 -4.8125 10.75 C-5.8953125 10.37875 -5.8953125 10.37875 -7 10 C-6.67 9.34 -6.34 8.68 -6 8 C-2.9375 7.375 -2.9375 7.375 0 7 C0 4.69 0 2.38 0 0 Z " fill="#0C0C0C" transform="translate(284,78)"/>
<path d="M0 0 C0.66 0.33 1.32 0.66 2 1 C1.67 2.98 1.34 4.96 1 7 C3.31 7.66 5.62 8.32 8 9 C7.34 9.66 6.68 10.32 6 11 C3.23615924 10.78739686 1.47606379 10.32831986 -0.8125 8.75 C-2.42982809 6.36656913 -2.36169769 4.82124201 -2 2 C-1.34 1.34 -0.68 0.68 0 0 Z " fill="#0C0A0B" transform="translate(276,63)"/>
<path d="M0 0 C3.875 0.875 3.875 0.875 5 2 C5.30232139 4.87205324 5.37392386 6.43911421 3.75 8.875 C2 10 2 10 -0.1875 9.6875 C-0.785625 9.460625 -1.38375 9.23375 -2 9 C-0.68 8.34 0.64 7.68 2 7 C1.34 4.69 0.68 2.38 0 0 Z " fill="#101010" transform="translate(417,48)"/>
<path d="M0 0 C5.75 1.75 5.75 1.75 8 4 C8.125 6.625 8.125 6.625 8 9 C7.01 9.495 7.01 9.495 6 10 C6.04125 9.21625 6.0825 8.4325 6.125 7.625 C6.28728734 4.83883881 6.28728734 4.83883881 4 3 C2.0068433 2.97624074 2.0068433 2.97624074 -0.125 3.375 C-1.40375 3.58125 -2.6825 3.7875 -4 4 C-2.68 2.68 -1.36 1.36 0 0 Z " fill="#0A0A0A" transform="translate(189,91)"/>
<path d="M0 0 C1.32 0.66 2.64 1.32 4 2 C4 3.32 4 4.64 4 6 C1 6 1 6 -2 5 C-2 4.34 -2 3.68 -2 3 C-1.34 2.67 -0.68 2.34 0 2 C0 1.34 0 0.68 0 0 Z " fill="#131313" transform="translate(492,92)"/>
<path d="M0 0 C1.0828125 0.37125 1.0828125 0.37125 2.1875 0.75 C2.1875 1.08 2.1875 1.41 2.1875 1.75 C-0.1225 2.41 -2.4325 3.07 -4.8125 3.75 C-5.1425 5.07 -5.4725 6.39 -5.8125 7.75 C-5.1525 8.08 -4.4925 8.41 -3.8125 8.75 C-4.4725 9.41 -5.1325 10.07 -5.8125 10.75 C-7.8125 8.75 -7.8125 8.75 -8.25 6.375 C-7.8125 3.75 -7.8125 3.75 -5.625 1.375 C-2.8125 -0.25 -2.8125 -0.25 0 0 Z " fill="#090809" transform="translate(281.8125,76.25)"/>
<path d="M0 0 C0.33 0.66 0.66 1.32 1 2 C0.01 3.485 0.01 3.485 -1 5 C-3.625 5.1875 -3.625 5.1875 -6 5 C-6.33 3.68 -6.66 2.36 -7 1 C-3.535 0.505 -3.535 0.505 0 0 Z " fill="#1F1F1F" transform="translate(194,52)"/>
<path d="M0 0 C0.33 2.31 0.66 4.62 1 7 C0.34 6.67 -0.32 6.34 -1 6 C-1.625 3.4375 -1.625 3.4375 -2 1 C-2.99 1 -3.98 1 -5 1 C-5.33 1.99 -5.66 2.98 -6 4 C-6.99 3.67 -7.98 3.34 -9 3 C-6.38997624 -0.48003168 -4.1689578 -0.27793052 0 0 Z " fill="#1A1919" transform="translate(284,78)"/>
<path d="M0 0 C1.65 0.33 3.3 0.66 5 1 C5 2.32 5 3.64 5 5 C2.525 4.01 2.525 4.01 0 3 C-0.33 3.66 -0.66 4.32 -1 5 C-1 2 -1 2 0 0 Z " fill="#1F1F1F" transform="translate(279,33)"/>
<path d="M0 0 C0.99 0.66 1.98 1.32 3 2 C2.67 4.31 2.34 6.62 2 9 C0.68 9.33 -0.64 9.66 -2 10 C-1.67 8.68 -1.34 7.36 -1 6 C-0.34 6 0.32 6 1 6 C0.67 4.02 0.34 2.04 0 0 Z " fill="#0A0A0A" transform="translate(149,78)"/>
<path d="M0 0 C0.763125 0.20625 1.52625 0.4125 2.3125 0.625 C1.673125 0.728125 1.03375 0.83125 0.375 0.9375 C-0.6459375 1.2778125 -0.6459375 1.2778125 -1.6875 1.625 C-2.0175 2.615 -2.3475 3.605 -2.6875 4.625 C-3.6775 4.955 -4.6675 5.285 -5.6875 5.625 C-5.6875 4.305 -5.6875 2.985 -5.6875 1.625 C-2.6875 -0.375 -2.6875 -0.375 0 0 Z " fill="#101010" transform="translate(26.6875,31.375)"/>
<path d="M0 0 C0 0.66 0 1.32 0 2 C-0.66 2 -1.32 2 -2 2 C-2.66 3.98 -3.32 5.96 -4 8 C-4.66 8 -5.32 8 -6 8 C-6.25 5.6875 -6.25 5.6875 -6 3 C-3.95575462 1.02389614 -2.8823175 0 0 0 Z " fill="#111111" transform="translate(206,61)"/>
<path d="M0 0 C3.875 0.875 3.875 0.875 5 2 C5.25 4.4375 5.25 4.4375 5 7 C4.01 7.66 3.02 8.32 2 9 C2.33 6.69 2.66 4.38 3 2 C2.01 2 1.02 2 0 2 C0 1.34 0 0.68 0 0 Z " fill="#111111" transform="translate(282,18)"/>
<path d="M0 0 C2.86724686 0.57344937 3.8614515 0.8614515 6 3 C6.3125 5.5 6.3125 5.5 6 8 C5.01 8.66 4.02 9.32 3 10 C3.2475 9.278125 3.495 8.55625 3.75 7.8125 C4.31737069 4.8205652 4.31737069 4.8205652 2.0625 2.1875 C1.381875 1.465625 0.70125 0.74375 0 0 Z " fill="#0C0C0C" transform="translate(41,92)"/>
<path d="M0 0 C2 2 2 2 2 5 C-0.3125 5.6875 -0.3125 5.6875 -3 6 C-4.8125 4.5625 -4.8125 4.5625 -6 3 C-4.35 3 -2.7 3 -1 3 C-0.67 2.01 -0.34 1.02 0 0 Z " fill="#101010" transform="translate(492,113)"/>
<path d="M0 0 C2.475 0.495 2.475 0.495 5 1 C4.34 2.65 3.68 4.3 3 6 C2.01 5.67 1.02 5.34 0 5 C0 3.35 0 1.7 0 0 Z " fill="#1D1E1E" transform="translate(277,62)"/>
<path d="M0 0 C3.3 0.33 6.6 0.66 10 1 C8.515 2.485 8.515 2.485 7 4 C4.4375 3.875 4.4375 3.875 2 3 C1.34 2.01 0.68 1.02 0 0 Z " fill="#0A0A0A" transform="translate(305,70)"/>
<path d="M0 0 C0.99 0.33 1.98 0.66 3 1 C2.01 1.33 1.02 1.66 0 2 C-1.20882096 4.00016466 -1.20882096 4.00016466 -2 6 C-2.66 5.67 -3.32 5.34 -4 5 C-2.25 1.125 -2.25 1.125 0 0 Z " fill="#111111" transform="translate(39,31)"/>
<path d="M0 0 C2.86724686 0.57344937 3.8614515 0.8614515 6 3 C6.125 5.625 6.125 5.625 6 8 C4 6 4 6 3.5625 3.9375 C3.2840625 2.9784375 3.2840625 2.9784375 3 2 C2.01 1.67 1.02 1.34 0 1 C0 0.67 0 0.34 0 0 Z " fill="#0A0A0A" transform="translate(161,92)"/>
<path d="M0 0 C1.32 0.33 2.64 0.66 4 1 C2.71034824 2.37562854 1.37310707 3.70766393 0 5 C-0.66 5 -1.32 5 -2 5 C-1.34 3.35 -0.68 1.7 0 0 Z " fill="#202020" transform="translate(368,18)"/>
</svg>
